<svg width="50" height="48" viewBox="0 0 50 48" fill="none" xmlns="http://www.w3.org/2000/svg">
<g clip-path="url(#clip0_315_9695)">
<path fill-rule="evenodd" clip-rule="evenodd" d="M44.7477 23.3329V33.7682C44.7477 35.1788 44.1744 36.4578 43.2511 37.3811C42.3279 38.3043 41.0489 38.8776 39.6384 38.8776H8.70603C7.29546 38.8776 6.01642 38.3043 5.09317 37.3811C4.16992 36.4578 3.59668 35.1788 3.59668 33.7682V14.4356C3.59668 13.0188 4.17495 11.7347 5.10529 10.8106C6.0276 9.89447 7.30166 9.32617 8.70603 9.32617H30.741C30.4257 10.1131 30.2005 10.946 30.0783 11.8118H8.70603C8.48499 11.8118 8.27051 11.8391 8.06566 11.8903L23.7135 25.8979L23.7146 25.8989C23.9757 26.1299 24.3682 26.1301 24.6295 25.8991L24.6309 25.8979L31.8595 19.4235C32.3309 20.1095 32.8798 20.7382 33.4934 21.297L31.7516 22.8569L42.1782 34.43C42.2329 34.2187 42.262 33.997 42.262 33.7682V23.9956C43.1279 23.8734 43.9607 23.6482 44.7477 23.3329ZM29.9001 24.5154L40.4771 36.2553C40.2139 36.3441 39.9319 36.392 39.6384 36.392H8.70603C8.44306 36.392 8.1894 36.3535 7.95015 36.2818L19.1147 25.1172L22.0588 27.7527L22.0621 27.7556C23.2655 28.8253 25.0789 28.8253 26.2822 27.7556L26.2857 27.7526L29.9001 24.5154ZM17.2599 23.4568L6.19254 34.5241C6.12078 34.2849 6.08231 34.0312 6.08231 33.7682V14.4356C6.08231 14.1353 6.13247 13.8471 6.22509 13.5788L17.2599 23.4568Z" fill="white"/>
<path d="M40.7428 20.3733C44.6323 20.3733 47.7854 17.2202 47.7854 13.3307C47.7854 9.44117 44.6323 6.28809 40.7428 6.28809C36.8533 6.28809 33.7002 9.44117 33.7002 13.3307C33.7002 17.2202 36.8533 20.3733 40.7428 20.3733Z" fill="#7F56D9" stroke="white" stroke-width="2.48563"/>
</g>
<defs>
<clipPath id="clip0_315_9695">
<rect width="48.0555" height="46.3984" fill="white" transform="translate(0.972656 0.902344)"/>
</clipPath>
</defs>
</svg>
