<svg width="37" height="36" viewBox="0 0 37 36" fill="none" xmlns="http://www.w3.org/2000/svg">
<path fill-rule="evenodd" clip-rule="evenodd" d="M15.2255 0.13341C7.79159 1.47896 1.98967 7.28828 0.616737 14.7609C0.434299 15.7539 0.439085 16.1009 0.639612 16.401C0.958035 16.8776 1.01223 16.8863 3.68236 16.8863C6.76925 16.8863 6.67416 16.9265 6.9992 15.4812C7.68391 12.4358 9.37815 9.94771 11.942 8.22236C13.1779 7.39062 14.6595 6.76954 16.0609 6.49574C16.7677 6.35772 17.071 6.18893 17.249 5.83461C17.359 5.61578 17.3721 5.3346 17.3721 3.19657C17.3721 0.526441 17.3634 0.472244 16.8868 0.153822C16.5933 -0.0422012 16.2211 -0.0467762 15.2255 0.13341ZM19.9765 0.152414C19.491 0.483858 19.4838 0.527426 19.4838 3.18482C19.4838 5.8054 19.4969 5.89655 19.9159 6.19484C20.0278 6.27452 20.4594 6.41656 20.8749 6.51038C21.9958 6.76349 22.6541 6.99541 23.6718 7.49563C26.8929 9.07895 29.1213 11.9797 29.9128 15.6196C30.0532 16.2648 30.0738 16.5597 30.0752 17.9423C30.0766 19.3475 30.0584 19.6084 29.913 20.2579C29.5698 21.7903 28.9815 23.2012 28.1809 24.4113C27.855 24.9038 27.7893 25.055 27.7893 25.3122C27.7893 25.4822 27.8345 25.7067 27.8897 25.8113C27.9449 25.9159 28.7605 26.767 29.7021 27.7028C31.5565 29.5458 31.6326 29.5985 32.1794 29.418C32.5297 29.3024 32.7852 29.0171 33.5056 27.937C35.1202 25.5161 36.159 22.6011 36.4522 19.6683C36.6088 18.1016 36.475 15.7751 36.1361 14.1739C35.1626 9.5727 32.2884 5.39245 28.3027 2.78095C26.3233 1.48403 23.9107 0.529679 21.606 0.131932C20.5577 -0.0490286 20.2662 -0.0453685 19.9765 0.152414ZM17.1781 10.833C17.0519 10.9099 16.8858 11.0761 16.8089 11.2023C16.672 11.4266 16.6689 11.5694 16.6687 17.7487L16.6684 24.0658H18.4281H20.1877L20.1874 17.7487C20.1872 11.5694 20.1841 11.4266 20.0473 11.2023C19.7762 10.7575 19.5714 10.6931 18.4281 10.6931C17.5335 10.6931 17.3791 10.7104 17.1781 10.833ZM22.2993 18.7869V24.0658L23.6542 24.0656C25.1761 24.0656 25.3652 24.0198 25.6587 23.5803L25.8185 23.3411L25.8182 18.7941C25.818 14.381 25.8139 14.2403 25.6781 14.0177C25.3911 13.5469 25.2415 13.5086 23.6894 13.5083L22.2993 13.508V18.7869ZM11.5231 16.4832C11.0341 16.8099 11.0378 16.7811 11.0378 20.1946C11.0378 24.2874 10.8929 24.0188 13.1189 24.0522L14.5569 24.0738V20.1986V16.3234H13.1596C11.824 16.3234 11.7517 16.3305 11.5231 16.4832ZM1.04179 19.1284C0.463156 19.4359 0.380524 19.8309 0.618708 21.1501C1.54012 26.2535 4.65748 30.7636 9.12272 33.4536C11.2339 34.7254 13.4463 35.5022 16.1054 35.9054C17.0364 36.0466 20.0266 36.0255 21.0323 35.8707C23.6698 35.4647 26.2483 34.4701 28.4228 33.0198C29.5029 32.2994 29.7882 32.0439 29.9038 31.6936C30.0843 31.1468 30.0316 31.0707 28.1886 29.2163C27.2528 28.2747 26.4017 27.4591 26.2971 27.4039C26.1925 27.3487 25.9679 27.3035 25.798 27.3035C25.5409 27.3035 25.3894 27.3692 24.8971 27.6947C23.6713 28.505 22.2908 29.0808 20.7437 29.4272C20.0942 29.5726 19.8333 29.5908 18.4281 29.5894C17.0455 29.588 16.7506 29.5674 16.1054 29.427C12.4632 28.635 9.58065 26.4202 7.9829 23.186C7.48007 22.1681 7.2509 21.5171 6.9923 20.3719C6.80275 19.5326 6.69197 19.3275 6.32061 19.1283C6.09777 19.0088 5.87916 18.9981 3.68236 18.9981C1.48628 18.9981 1.26667 19.0089 1.04179 19.1284Z" fill="#7F56D9"/>
</svg>
