<svg width="41" height="36" viewBox="0 0 41 36" fill="none" xmlns="http://www.w3.org/2000/svg">
<path fill-rule="evenodd" clip-rule="evenodd" d="M17.1023 0.143182C17.0786 0.221891 16.9118 0.909573 16.7317 1.67122C16.5517 2.43286 16.3569 3.10295 16.2989 3.16023C16.2409 3.21758 15.8262 3.34383 15.3772 3.4407C14.9283 3.53765 14.2474 3.72355 13.8643 3.85388C13.481 3.9843 13.1055 4.09091 13.0297 4.09091C12.954 4.09091 12.3843 3.55885 11.7637 2.90864L10.6355 1.72636L10.1826 1.98368C9.93356 2.12523 9.4127 2.42714 9.02521 2.65459L8.32051 3.06818L8.7584 4.54091C8.99927 5.35091 9.1967 6.07565 9.19719 6.15142C9.19793 6.27709 6.79779 8.75389 6.67408 8.75504C6.64471 8.75536 5.92815 8.54894 5.08166 8.29636C4.23525 8.04379 3.53259 7.85029 3.52032 7.86633C3.4196 7.99773 2.24347 10.0878 2.24347 10.1354C2.24347 10.1693 2.75892 10.6854 3.38892 11.2822C4.22371 12.0731 4.53437 12.4191 4.53437 12.5581C4.53437 12.6631 4.42703 13.0773 4.29587 13.4787C4.16472 13.8801 3.99405 14.5276 3.91657 14.9175C3.83917 15.3074 3.72871 15.691 3.67111 15.77C3.59911 15.8688 3.0857 16.0292 2.02542 16.284L0.484375 16.6545V18V19.3455L2.01691 19.716C2.8598 19.9197 3.60042 20.1416 3.66268 20.2091C3.72495 20.2766 3.83925 20.6602 3.91665 21.0616C3.99405 21.463 4.16472 22.1199 4.29587 22.5213C4.42703 22.9227 4.53437 23.3369 4.53437 23.4419C4.53437 23.5809 4.22371 23.9269 3.38892 24.7178C2.75892 25.3146 2.24347 25.8307 2.24347 25.8646C2.24347 25.9127 3.42206 28.0065 3.5213 28.1347C3.53407 28.1512 4.21995 27.9579 5.04533 27.7051C5.87079 27.4523 6.58646 27.2455 6.63563 27.2455C6.77562 27.2455 9.19801 29.6879 9.19801 29.829C9.19801 29.8982 8.99666 30.6227 8.75055 31.439C8.50452 32.2554 8.31118 32.9283 8.321 32.9344C9.0302 33.374 10.5572 34.2008 10.6273 34.1833C10.6806 34.17 11.1745 33.6805 11.7247 33.0955C12.275 32.5105 12.7971 31.9984 12.885 31.9577C12.9983 31.9051 13.2883 31.9583 13.8831 32.141C14.3442 32.2825 15.0448 32.4691 15.4402 32.5554C15.8354 32.6418 16.2102 32.755 16.2729 32.8071C16.3356 32.8592 16.5202 33.4608 16.6832 34.144C16.8462 34.8273 17.0158 35.5245 17.0601 35.6932L17.1407 36H17.9967H18.8526V32.4907V28.9813L18.0139 28.9241C16.3398 28.8099 14.916 28.4387 13.5845 27.7691C10.465 26.2002 8.27747 23.2419 7.67513 19.7774C7.57547 19.2042 7.55355 18.6883 7.5839 17.6318C7.61843 16.4288 7.65705 16.1138 7.8701 15.3C8.366 13.4048 9.26919 11.8015 10.6317 10.3973C12.6083 8.36034 15.0605 7.24205 17.9333 7.06762L18.8526 7.01174V3.50591V0H17.9989C17.257 0 17.1398 0.0187364 17.1023 0.143182ZM29.4889 0.661173C28.6915 1.02215 28.3074 1.61845 28.3074 2.49545C28.3074 3.16882 28.4905 3.58846 28.9668 4.00664C29.384 4.37302 29.7246 4.5 30.2898 4.5C31.5902 4.5 32.5692 3.28958 32.2717 2.04963C31.9796 0.831927 30.6154 0.151282 29.4889 0.661173ZM19.7526 2.49545V3.02727H23.5571H27.3616V2.49545V1.96364H23.5571H19.7526V2.49545ZM35.3652 6.7383C34.1285 7.08128 33.5073 8.45885 34.0798 9.5886C34.7596 10.93 36.6353 11.0905 37.5108 9.88192C38.624 8.34521 37.183 6.23405 35.3652 6.7383ZM17.5844 7.99364C13.3794 8.37564 9.85509 11.3791 8.72314 15.5455C8.52825 16.2628 8.51197 16.4522 8.51197 18C8.51197 19.5478 8.52825 19.7372 8.72314 20.4545C9.74758 24.2251 12.7107 27.0532 16.4389 27.8186C19.6549 28.4789 22.9098 27.5515 25.3389 25.283C29.7934 21.123 29.4815 13.9618 24.679 10.1335C22.7048 8.55974 20.077 7.76716 17.5844 7.99364ZM23.4344 8.21168C23.4344 8.22813 23.726 8.41099 24.0825 8.61807C24.4389 8.82524 24.754 9.03264 24.7827 9.07912C24.8175 9.13541 26.1926 9.16364 28.9006 9.16364H32.9662V8.67273V8.18182H28.2003C25.579 8.18182 23.4344 8.19524 23.4344 8.21168ZM20.2597 10.9543C24.023 11.9348 26.3498 15.6587 25.5676 19.449C24.9924 22.2361 22.8648 24.4019 20.0277 25.0885C19.1922 25.2907 17.6952 25.2728 16.7825 25.0498C14.0328 24.3779 11.941 22.215 11.3502 19.4332C11.1946 18.7003 11.2489 16.7937 11.446 16.0773C11.6569 15.3099 12.2569 14.1466 12.7834 13.484C13.9084 12.0683 15.3903 11.1878 17.2442 10.8336C18.024 10.6846 19.4423 10.7413 20.2597 10.9543ZM17.5825 11.6937C14.3939 12.2037 12.1435 14.8129 12.1435 18C12.1435 20.9221 14.0029 23.3445 16.8651 24.151C17.67 24.3777 19.0995 24.3961 19.9423 24.1904C21.6952 23.7627 23.2536 22.5412 24.0823 20.9455C24.6387 19.874 24.7832 19.2668 24.7832 18C24.7832 17.0714 24.7528 16.7983 24.5922 16.2853C24.1902 15.0012 23.4835 13.909 22.5488 13.1274C21.91 12.5932 20.7534 12.0035 19.998 11.827C19.3389 11.6729 18.1296 11.6062 17.5825 11.6937ZM38.7345 13.6693C38.0035 13.9766 37.7016 14.8549 38.0895 15.5451C38.5387 16.3445 39.6813 16.4185 40.2411 15.6845C40.8634 14.8687 40.3396 13.6845 39.3241 13.6111C39.1123 13.5958 38.8469 13.622 38.7345 13.6693ZM28.8344 14.4488C28.8344 14.4756 28.8922 14.6965 28.9629 14.9397L29.0914 15.3818H33.0538H37.0162V14.8909V14.4H32.9253C30.6753 14.4 28.8344 14.4219 28.8344 14.4488ZM38.5644 19.9861C38.1403 20.2718 37.9162 20.6601 37.9162 21.1091C37.9162 22.0881 38.9955 22.7213 39.8389 22.2372C40.2738 21.9876 40.5588 21.447 40.5088 20.9664C40.4674 20.5676 40.1533 20.1064 39.7978 19.9226C39.4409 19.7381 38.8903 19.7664 38.5644 19.9861ZM28.9721 21.0549C28.8963 21.2951 28.8344 21.5161 28.8344 21.5458C28.8344 21.5756 30.6753 21.6 32.9253 21.6H37.0162V21.1091V20.6182H33.063H29.1097L28.9721 21.0549ZM34.9845 25.4948C33.7177 26.1261 33.483 27.8779 34.5408 28.8066C34.9543 29.1697 35.2938 29.2912 35.8886 29.2891C36.5461 29.2868 36.9669 29.0969 37.3971 28.6081C38.5476 27.301 37.6218 25.2906 35.8663 25.2836C35.5382 25.2823 35.2932 25.341 34.9845 25.4948ZM24.7827 26.9209C24.754 26.9674 24.4316 27.179 24.0661 27.3913L23.4017 27.7773L25.7908 27.799C27.1047 27.8109 29.2508 27.8109 30.5598 27.799L32.9397 27.7773L32.953 27.3068L32.9664 26.8364H28.9006C26.1926 26.8364 24.8175 26.8646 24.7827 26.9209ZM29.4252 31.6779C28.6311 32.0629 28.1536 33.0204 28.3308 33.8727C28.7558 35.9178 31.5785 36.0791 32.2372 34.096C32.557 33.1333 32.0317 32.0133 31.0725 31.6125C30.6669 31.4431 29.842 31.4758 29.4252 31.6779ZM19.7526 33.5045V34.0364H23.5571H27.3616V33.5045V32.9727H23.5571H19.7526V33.5045Z" fill="#7F56D9"/>
</svg>
