<svg width="37" height="36" viewBox="0 0 37 36" fill="none" xmlns="http://www.w3.org/2000/svg">
<path fill-rule="evenodd" clip-rule="evenodd" d="M2.28929 0.117046C1.58818 0.359871 1.02628 0.876683 0.704389 1.5747C0.547735 1.91446 0.54478 1.96785 0.54478 4.48832V7.05585L0.733863 7.45934C0.975492 7.97481 1.52508 8.5244 2.04056 8.76603L2.44405 8.95512H18.5175H34.5909L34.9944 8.76603C35.5099 8.5244 36.0595 7.97481 36.3011 7.45934L36.4902 7.05585V4.48832V1.92079L36.3011 1.5173C36.0595 1.00182 35.5099 0.452231 34.9944 0.210602L34.5909 0.0215193L18.623 0.00590313C3.40156 -0.0089393 2.63799 -0.00373389 2.28929 0.117046ZM3.9221 13.6058C3.13658 13.7957 2.50096 14.169 1.8436 14.8262C0.915419 15.7545 0.511719 16.7148 0.511719 17.9942C0.511719 19.2738 0.915489 20.2342 1.8436 21.1619C2.76833 22.0862 3.73837 22.4941 5.01158 22.4941C6.29105 22.4941 7.25131 22.0904 8.17956 21.1622C9.10774 20.234 9.51144 19.2737 9.51144 17.9942C9.51144 16.721 9.10352 15.751 8.17928 14.8262C7.51151 14.1582 6.88208 13.7934 6.06673 13.6018C5.50025 13.4687 4.48147 13.4706 3.9221 13.6058ZM14.219 13.6574C13.2756 14.0466 12.6932 14.7597 12.5363 15.7176C12.4457 16.2707 12.4457 33.2236 12.5363 33.7767C12.6758 34.628 13.2148 35.3491 14.001 35.7361L14.4698 35.9669H24.5304H34.5909L34.9944 35.7779C35.5099 35.5362 36.0595 34.9866 36.3011 34.4712L36.4902 34.0677V24.7472V15.4267L36.3011 15.0232C36.0595 14.5077 35.5099 13.9581 34.9944 13.7165L34.5909 13.5274L24.6022 13.511L14.6134 13.4946L14.219 13.6574ZM3.9221 27.1117C3.13658 27.3016 2.50096 27.6749 1.8436 28.3322C0.915419 29.2604 0.511719 30.2207 0.511719 31.5001C0.511719 32.7798 0.915489 33.7401 1.8436 34.6678C2.76833 35.5921 3.73837 36 5.01158 36C6.29105 36 7.25131 35.5963 8.17956 34.6681C9.10774 33.7399 9.51144 32.7796 9.51144 31.5001C9.51144 30.2269 9.10352 29.2569 8.17928 28.3322C7.51151 27.6641 6.88208 27.2993 6.06673 27.1077C5.50025 26.9746 4.48147 26.9765 3.9221 27.1117Z" fill="#7F56D9"/>
</svg>
