<svg width="34" height="24" viewBox="0 0 34 24" fill="none" xmlns="http://www.w3.org/2000/svg">
<path fill-rule="evenodd" clip-rule="evenodd" d="M32.2772 9.46241C32.8572 10.027 33.2595 10.7488 33.4347 11.5391C33.6098 12.3294 33.5501 13.1536 33.2628 13.9103L31.0743 19.8558C30.4999 21.4168 29.1907 22.6244 27.5728 22.9396C26.7636 23.1015 25.9255 23.0405 25.1483 22.7629C24.371 22.4853 23.6839 22.0017 23.1603 21.3637L10.0366 5.64017C10.004 5.60147 9.96174 5.57202 9.91416 5.55477C9.86658 5.53751 9.8153 5.53305 9.76545 5.54183C9.71561 5.55061 9.66894 5.57232 9.63012 5.6048C9.59129 5.63727 9.56168 5.67937 9.54424 5.72689L5.2744 17.2757C5.18582 17.5144 5.4208 17.7456 5.65392 17.6505L10.8935 15.5105C11.1889 15.3907 11.5059 15.3333 11.8245 15.3418C12.1431 15.3503 12.4566 15.4246 12.7452 15.56C13.0337 15.6953 13.2912 15.8889 13.5015 16.1284C13.7117 16.368 13.8702 16.6484 13.967 16.9521C14.354 18.1391 13.7031 19.4213 12.5571 19.8894L5.71267 22.6841C4.44543 23.2016 2.98982 23.1102 1.84847 22.3484C1.07067 21.8286 0.490783 21.0618 0.202474 20.1718C-0.0858352 19.2818 -0.0657382 18.3207 0.259519 17.4435L5.30424 3.80318C5.90196 2.18626 7.26339 1.0449 8.94652 0.750235C9.76617 0.603347 10.6102 0.67754 11.3916 0.965178C12.1731 1.25282 12.8638 1.74351 13.3926 2.38674L20.9252 11.4132L27.8535 8.58308C29.393 7.95459 31.0883 8.29121 32.2772 9.46241ZM28.2815 13.9961C28.3692 13.7574 28.1342 13.5262 27.9011 13.6222L24.0732 15.185L26.369 17.9368C26.4016 17.976 26.4439 18.0058 26.4917 18.0234C26.5395 18.0409 26.5911 18.0455 26.6412 18.0367C26.6914 18.0279 26.7384 18.006 26.7773 17.9733C26.8163 17.9405 26.8459 17.898 26.8632 17.8501L28.2806 13.9961H28.2815Z" fill="#A05BF8"/>
</svg>
