<svg width="145" height="48" viewBox="0 0 145 48" fill="none" xmlns="http://www.w3.org/2000/svg">
<g clip-path="url(#clip0_296_10079)">
<path fill-rule="evenodd" clip-rule="evenodd" d="M2 38.9371C2 40.7955 3.20602 42.0008 5.06513 42.0008L14.0207 42.001C19.3632 42.001 23.7335 40.1941 26.7047 37.0309H2V38.9371ZM14.0207 8.00115L5.06513 8.00098C3.20602 8.00098 2 9.20644 2 11.0649V12.9711H26.7047C23.7335 9.8079 19.3632 8.00115 14.0207 8.00115ZM21.8363 29.8455C21.8363 31.349 22.8161 32.3245 24.3267 32.3245H29.693C30.3013 30.8155 30.71 29.1567 30.9 27.3666H24.3267C22.8161 27.3666 21.8363 28.3419 21.8363 29.8455ZM14.3981 20.1687C14.3981 21.6723 15.3779 22.6476 16.8885 22.6476H30.9C30.71 20.8575 30.3013 19.1987 29.693 17.6897H16.8885C15.3779 17.6897 14.3981 18.665 14.3981 20.1687ZM16.8868 29.8455C16.8868 28.3419 15.907 27.3666 14.3964 27.3666H2V32.3245H14.3964C15.907 32.3245 16.8868 31.3492 16.8868 29.8455ZM9.4487 20.1687C9.4487 18.665 8.46888 17.6897 6.95826 17.6897H2V22.6476H6.95826C8.46888 22.6476 9.4487 21.6723 9.4487 20.1687Z" fill="#0062FF"/>
<path fill-rule="evenodd" clip-rule="evenodd" d="M65.0228 24.4892C65.4219 22.549 66.7109 21.5625 68.4052 21.5625C70.0849 21.5625 71.3132 22.5932 71.705 24.4892H65.0228ZM68.4973 18.2012C64.1833 18.2012 61.5 21.6552 61.5 25.8801C61.5 30.2558 64.3673 33.5012 68.6289 33.5012C71.568 33.5012 73.3508 32.1391 74.4542 30.424L71.7106 28.6676C71.0208 29.6119 69.9171 30.1108 68.7341 30.1108C66.7989 30.1108 65.503 29.2028 65.0613 27.3869H72.3028C72.3022 27.3893 72.3017 27.3916 72.301 27.3942L74.9409 27.4097C75.041 26.9319 75.1 26.4381 75.1 25.8801C75.1 22.2001 72.8377 18.2012 68.4973 18.2012Z" fill="#0062FF"/>
<path fill-rule="evenodd" clip-rule="evenodd" d="M50.4498 30.1016C47.7955 30.1016 46.1998 28.1987 46.1998 25.8515C46.1998 23.5043 47.8261 21.6016 50.4498 21.6016C53.0736 21.6016 54.6998 23.5043 54.6998 25.8515C54.6998 28.1987 53.1041 30.1016 50.4498 30.1016ZM54.4106 20.4479C53.3507 19.1749 51.8458 18.3946 49.9779 18.3946C45.8026 18.3946 42.7998 21.7765 42.7998 25.9481C42.7998 30.1198 45.7741 33.5016 49.9779 33.5016C51.8458 33.5016 53.3507 32.7212 54.4106 31.4482V33.1296H58.0998V13.1016H54.4106V20.4479Z" fill="#0062FF"/>
<path fill-rule="evenodd" clip-rule="evenodd" d="M86.3817 25.6007C87.3833 26.3004 88.0181 27.3496 88.0181 28.734C88.0181 31.532 86.1321 33.4733 82.606 33.4733C79.2877 33.4733 77.5083 31.773 76.7998 30.0558L79.8455 28.2773C79.8455 28.2773 80.2555 30.133 82.5514 30.133C83.9727 30.133 84.4101 29.5048 84.4101 28.9501C84.4101 28.6931 84.328 28.2202 83.3168 27.8204C81.2855 27.0177 77.3581 26.6575 77.3581 22.9955C77.3581 19.9979 79.7078 18.3992 82.606 18.3992C85.3161 18.3992 87.057 20.0854 87.7179 21.3975L84.7381 23.1383C84.7381 23.1383 84.1641 21.6822 82.6334 21.6822C81.1028 21.6822 80.9661 22.5674 80.9661 22.8242C80.9661 23.5737 81.7301 23.8814 83.3714 24.366C84.3432 24.6529 85.3413 24.9135 86.3848 25.598C86.3838 25.5989 86.3827 25.5998 86.3817 25.6007ZM146.5 22.3389H143.411V28.2771C143.411 30.1331 145.215 29.7332 146.5 29.7332V33.0735C146.5 33.0735 145.823 33.1877 144.641 33.1877C142.017 33.1877 139.885 32.3884 139.885 28.2771V22.3389H137.507V18.7987H139.885V14.8018H143.411V18.7987H146.5V22.3389ZM96.7837 29.876C98.2469 29.876 99.3719 29.147 99.9405 27.9511L102.997 29.7816C101.799 31.9754 99.5679 33.5018 96.7837 33.5018C92.5609 33.5018 89.6088 30.1273 89.6088 25.9648C89.6088 21.8021 92.5882 18.4276 96.7837 18.4276C99.5271 18.4276 101.75 19.9291 102.961 22.0938L99.911 23.9661C99.3314 22.7858 98.2153 22.0534 96.7837 22.0534C94.65 22.0534 93.1349 23.8046 93.1349 25.9648C93.1349 28.1248 94.6361 29.876 96.7837 29.876Z" fill="#0062FF"/>
<path fill-rule="evenodd" clip-rule="evenodd" d="M129.197 29.8369C126.9 29.8369 125.52 28.0462 125.52 25.8374C125.52 23.6286 126.927 21.838 129.197 21.838C131.468 21.838 132.875 23.6286 132.875 25.8374C132.875 28.0462 131.494 29.8369 129.197 29.8369ZM129.635 18.349C133.512 18.349 136.3 21.7018 136.3 25.8374C136.3 29.9731 133.539 33.3257 129.635 33.3257C127.901 33.3257 126.504 32.5521 125.52 31.2901V38.6016H122.094V18.7462H125.52V20.3846C126.504 19.1226 127.901 18.349 129.635 18.349ZM115.509 32.9569V18.7745H118.934V32.9569H115.509ZM109.126 21.1971C109.787 19.4785 111.133 18.4955 113.162 18.491V22.5755C110.784 22.3352 109.066 23.5983 109.128 26.582C109.127 26.5798 109.127 26.5775 109.126 26.5752V32.9569H105.7V18.7746H109.126V21.1971ZM115.509 16.8818V13.1016H119.047V16.8818H115.509Z" fill="#0062FF"/>
</g>
<defs>
<clipPath id="clip0_296_10079">
<rect width="145" height="48" fill="white" transform="translate(0 0.000976562)"/>
</clipPath>
</defs>
</svg>
