<svg width="128" height="48" viewBox="0 0 128 48" fill="none" xmlns="http://www.w3.org/2000/svg">
<g clip-path="url(#clip0_296_10098)">
<path d="M46.172 24.0536C46.1762 22.2612 45.6261 20.5113 44.597 19.0437C43.5679 17.5762 42.1102 16.4627 40.4236 15.8559C40.5771 15.0736 40.6545 14.2783 40.6547 13.481C40.6562 10.8423 39.8209 8.27095 38.2689 6.13682C36.7169 4.0027 34.5281 2.41568 32.0173 1.60394C29.5064 0.792196 26.8029 0.797546 24.2953 1.61922C21.7877 2.44089 19.6052 4.03656 18.0616 6.17681C16.9229 5.29435 15.5275 4.80706 14.087 4.78874C12.6464 4.77042 11.2391 5.22208 10.0783 6.0753C8.91746 6.92851 8.06631 8.1368 7.65377 9.51715C7.24123 10.8975 7.28978 12.3747 7.79207 13.7249C6.10152 14.3411 4.64022 15.4603 3.60473 16.9318C2.56924 18.4033 2.00923 20.1567 2.00003 21.956C1.99534 23.7546 2.54832 25.5104 3.58284 26.9818C4.61736 28.4531 6.08255 29.5675 7.77666 30.1717C7.6267 30.9536 7.5502 31.7478 7.54817 32.5439C7.54565 35.1797 8.38025 37.7481 9.93163 39.8789C11.483 42.0097 13.671 43.5928 16.1802 44.3998C18.6893 45.2069 21.3899 45.1962 23.8926 44.3694C26.3953 43.5426 28.5707 41.9424 30.1053 39.7994C31.2407 40.684 32.6337 41.1743 34.0729 41.1958C35.5121 41.2173 36.9191 40.7688 38.0805 39.9184C39.2418 39.068 40.0941 37.8621 40.5082 36.4836C40.9222 35.105 40.8754 33.629 40.3749 32.2795C42.0663 31.6644 43.5286 30.5456 44.5646 29.0739C45.6007 27.6021 46.1608 25.8482 46.1695 24.0484" fill="white"/>
<path d="M19.3655 19.9512L29.0318 24.3645L38.7879 15.8202C38.9284 15.1152 38.9981 14.3979 38.9958 13.679C38.9953 11.3517 38.25 9.08557 36.8688 7.21233C35.4877 5.33908 33.5433 3.95703 31.3202 3.2684C29.0971 2.57976 26.7119 2.62071 24.5137 3.38523C22.3155 4.14976 20.4197 5.59773 19.1037 7.51727L17.4785 15.9229L19.3655 19.9512Z" fill="#FEC514"/>
<path d="M9.36056 30.1874C9.21803 30.9035 9.14665 31.6319 9.14747 32.362C9.14752 34.6991 9.89669 36.9745 11.285 38.8545C12.6734 40.7345 14.6278 42.1199 16.8614 42.8075C19.095 43.495 21.4902 43.4485 23.6954 42.6748C25.9006 41.901 27.7998 40.4408 29.1141 38.5084L30.7238 30.1207L28.5749 26.0128L18.8728 21.5918L9.36056 30.1874Z" fill="#00BFB3"/>
<path d="M9.30175 13.461L15.9256 15.0245L17.3762 7.49179C16.4753 6.80863 15.3773 6.43569 14.2466 6.42881C13.116 6.42192 12.0135 6.78147 11.1043 7.45361C10.1951 8.12575 9.52813 9.07431 9.20317 10.1573C8.87822 11.2402 8.9128 12.3993 9.30175 13.461Z" fill="#F04E98"/>
<path d="M8.72629 15.0371C7.27294 15.5275 6.00856 16.4587 5.10899 17.7011C4.20942 18.9434 3.71938 20.4353 3.70703 21.9691C3.70599 23.4514 4.15616 24.899 4.99769 26.1194C5.83923 27.3397 7.03226 28.275 8.4182 28.8009L17.7122 20.4004L16.0048 16.7547L8.72629 15.0371Z" fill="#1BA9F5"/>
<path d="M30.8145 38.5085C31.7139 39.1882 32.8091 39.5587 33.9365 39.5647C35.0639 39.5707 36.163 39.2119 37.0697 38.5418C37.9764 37.8717 38.6419 36.9263 38.967 35.8467C39.2921 34.7672 39.2593 33.6115 38.8735 32.5522L32.2548 31.0117L30.8145 38.5085Z" fill="#93C90E"/>
<path d="M32.1598 29.2682L39.4461 30.9704C40.9002 30.4813 42.1655 29.5505 43.0653 28.3079C43.965 27.0652 44.4545 25.5727 44.4653 24.0385C44.464 22.5592 44.0129 21.1153 43.172 19.8984C42.331 18.6814 41.1399 17.7489 39.7567 17.2246L30.2266 25.5686L32.1598 29.2682Z" fill="#0077CC"/>
<path d="M63.7608 31.912L64.644 31.8221L64.7056 33.6193C62.7403 33.9161 60.7572 34.079 58.7698 34.1071C56.579 34.1071 55.0266 33.4729 54.1126 32.2046C53.1986 30.9364 52.7424 28.9629 52.7441 26.2842C52.7441 20.9492 54.8648 18.2808 59.1061 18.2791C61.1601 18.2791 62.6919 18.8525 63.7018 19.9993C64.7116 21.146 65.2182 22.9432 65.2217 25.3908L65.101 27.1263H55.0574C55.0574 28.8106 55.362 30.0583 55.9714 30.8696C56.5807 31.6809 57.6402 32.0865 59.1498 32.0865C60.6628 32.0917 62.1999 32.0335 63.7608 31.912ZM62.9393 25.3086C62.9393 23.4413 62.6406 22.1225 62.0432 21.3523C61.4459 20.5821 60.472 20.1961 59.1216 20.1944C57.7711 20.1944 56.7561 20.6 56.0766 21.4113C55.3971 22.2226 55.0471 23.5217 55.0266 25.3086H62.9393Z" fill="#1C1E23"/>
<path d="M68.4052 33.9864V13.9607H70.6877V33.9864H68.4052Z" fill="#1C1E23"/>
<path d="M85.0626 23.1777V30.8542C85.0626 31.6244 86.9573 31.5833 86.9573 31.5833L86.8418 33.6013C85.2372 33.6013 83.9098 33.7348 83.114 32.962C81.3904 33.7275 79.5235 34.117 77.6377 34.1045C76.2393 34.1045 75.1739 33.7083 74.4413 32.9158C73.7087 32.1233 73.3433 30.9843 73.345 29.4986C73.345 28.0164 73.7207 26.9252 74.4721 26.2252C75.2235 25.5251 76.4002 25.0972 78.0023 24.9415L82.7802 24.4871V23.1777C82.7802 22.1507 82.5577 21.4096 82.1127 20.9543C81.8688 20.7254 81.5811 20.5483 81.267 20.4336C80.9528 20.3188 80.6187 20.2689 80.2847 20.2868H74.2873V18.2765H80.1332C81.8585 18.2765 83.1114 18.6728 83.8919 19.4652C84.6724 20.2577 85.0626 21.4952 85.0626 23.1777ZM75.6839 29.3856C75.6839 31.253 76.4541 32.1867 77.9946 32.1867C79.3843 32.1851 80.7636 31.9481 82.0742 31.4858L82.7725 31.2419V26.22L78.277 26.6462C77.363 26.7284 76.7032 26.992 76.2975 27.437C75.8919 27.882 75.6873 28.5316 75.6839 29.3856Z" fill="#1C1E23"/>
<path d="M93.9738 20.3176C91.7607 20.3176 90.6542 21.0878 90.6542 22.6283C90.6542 23.3403 90.9109 23.8426 91.4244 24.1353C91.9379 24.428 93.094 24.7327 94.8929 25.0493C96.7004 25.366 97.9789 25.8076 98.7286 26.3741C99.4783 26.9406 99.854 28.0052 99.8557 29.5679C99.8557 31.1323 99.3533 32.2791 98.3486 33.0082C97.3439 33.7374 95.878 34.1028 93.9507 34.1045C92.6927 34.1045 88.4924 33.6372 88.4924 33.6372L88.6156 31.6604C91.029 31.8914 92.7723 32.0634 93.9507 32.0634C95.1291 32.0634 96.0252 31.876 96.6439 31.5012C97.2626 31.1263 97.5707 30.4973 97.5707 29.6141C97.5707 28.731 97.314 28.1328 96.78 27.817C96.2459 27.5012 95.0958 27.2034 93.3114 26.9184C91.5271 26.6334 90.2562 26.2175 89.5065 25.6706C88.7569 25.1238 88.3795 24.1071 88.3795 22.6257C88.3795 21.1443 88.8929 20.0583 89.9481 19.3394C91.0033 18.6206 92.2973 18.274 93.8583 18.274C95.0958 18.274 99.391 18.5898 99.391 18.5898V20.5795C97.124 20.4794 95.2703 20.3176 93.9738 20.3176Z" fill="#1C1E23"/>
<path d="M110.857 20.5589H106.018V27.8349C106.018 29.5791 106.144 30.725 106.398 31.2727C106.654 31.8221 107.255 32.0942 108.208 32.0942L110.916 31.912L111.07 33.799C110.045 33.9886 109.006 34.101 107.964 34.1353C106.382 34.1353 105.287 33.7494 104.677 32.9774C104.068 32.2055 103.764 30.7344 103.766 28.5641V20.5589H101.614V18.5821H103.776V13.9248H106.028V18.5821H110.857V20.5589Z" fill="#1C1E23"/>
<path d="M114.03 16.6385V13.989H116.313V16.6385H114.03ZM114.03 33.9864V18.5821H116.313V33.9864H114.03Z" fill="#1C1E23"/>
<path d="M126.2 18.2765C127.34 18.3252 128.475 18.4478 129.599 18.6437L130.328 18.7335L130.238 20.5898C129.046 20.4386 127.846 20.3478 126.644 20.3176C124.919 20.3176 123.747 20.7284 123.129 21.55C122.511 22.3715 122.202 23.8931 122.2 26.1148C122.2 28.3399 122.489 29.8871 123.068 30.7566C123.646 31.6261 124.853 32.0626 126.688 32.066L130.282 31.7939L130.374 33.6809C128.975 33.9179 127.562 34.0603 126.143 34.1071C123.771 34.1071 122.133 33.4978 121.229 32.2791C120.326 31.0604 119.874 29.0065 119.874 26.1174C119.874 23.2265 120.361 21.1974 121.335 20.0301C122.309 18.8628 123.93 18.2782 126.2 18.2765Z" fill="#1C1E23"/>
</g>
<defs>
<clipPath id="clip0_296_10098">
<rect width="128" height="48" fill="white" transform="translate(0 0.000976562)"/>
</clipPath>
</defs>
</svg>
