<svg width="117" height="48" viewBox="0 0 117 48" fill="none" xmlns="http://www.w3.org/2000/svg">
<g clip-path="url(#clip0_296_10107)">
<path d="M37.1867 20.6703H26.4677L35.7504 15.3386L33.9096 12.1653L24.6257 17.497L29.9841 8.26279L26.7949 6.43112L21.4354 15.663V5.00195H17.7514V15.6641L12.3919 6.43112L9.20149 8.26279L14.5598 17.4946L5.27831 12.1653L3.43631 15.3386L12.719 20.6703H2V24.3348H12.7178L3.43631 29.6665L5.27714 32.8398L14.561 27.5081L9.20149 36.7423L12.3907 38.574L17.7514 29.341V40.002H21.4354V29.1123L26.8933 38.5156L29.8844 36.7983L24.4252 27.3926L33.9072 32.8386L35.7492 29.6653L26.4677 24.3336H37.1855V20.6703H37.1867ZM19.5934 27.4836C18.9357 27.4837 18.2845 27.3549 17.6769 27.1045C17.0693 26.8542 16.5172 26.4872 16.0522 26.0246C15.5871 25.5619 15.2182 25.0127 14.9664 24.4082C14.7147 23.8037 14.5851 23.1557 14.585 22.5014C14.5849 21.847 14.7144 21.1991 14.966 20.5945C15.2176 19.9899 15.5864 19.4406 16.0513 18.9778C16.5163 18.515 17.0683 18.148 17.6758 17.8975C18.2834 17.647 18.9346 17.518 19.5922 17.518C20.9203 17.5178 22.1941 18.0426 23.1334 18.977C24.0726 19.9113 24.6004 21.1787 24.6005 22.5002C24.6007 23.8217 24.0732 25.0892 23.1342 26.0238C22.1952 26.9583 20.9215 27.4835 19.5934 27.4836Z" fill="#625DF5"/>
<path d="M46.6836 35.3029V9.69922H51.4064V35.3029H46.6836ZM91.9808 17.9032H96.4902V20.0266C97.4493 18.3291 99.6876 17.4086 101.605 17.4086C103.985 17.4086 105.902 18.4352 106.789 20.3077C108.173 18.1844 110.021 17.4086 112.33 17.4086C115.561 17.4086 118.649 19.3534 118.649 24.0212V35.3029H114.07V24.9767C114.07 23.1019 113.146 21.6867 110.979 21.6867C108.954 21.6867 107.746 23.2442 107.746 25.119V35.304H103.061V24.9767C103.061 23.1019 102.102 21.6867 99.9702 21.6867C97.9101 21.6867 96.7024 23.2092 96.7024 25.119V35.304H91.9808V17.9032ZM62.0797 35.8069C56.7589 35.8069 52.9061 31.8787 52.9061 26.6031C52.9061 21.4114 56.7472 17.3911 62.0797 17.3911C67.438 17.3911 71.2533 21.4487 71.2533 26.6031C71.2533 31.8414 67.3982 35.8069 62.0797 35.8069ZM62.0797 21.6494C60.7599 21.6512 59.4948 22.174 58.5619 23.1029C57.629 24.0318 57.1045 25.291 57.1036 26.6042C57.1045 27.9174 57.629 29.1766 58.5619 30.1056C59.4948 31.0345 60.7599 31.5572 62.0797 31.559C63.3993 31.5569 64.6641 31.034 65.5967 30.1051C66.5294 29.1763 67.0537 27.9172 67.0546 26.6042C67.0537 25.2912 66.5294 24.0322 65.5967 23.1033C64.6641 22.1744 63.3993 21.6515 62.0797 21.6494ZM81.3404 35.8069C76.0195 35.8069 72.1667 31.8787 72.1667 26.6031C72.1667 21.4114 76.0078 17.3911 81.3404 17.3911C86.6987 17.3911 90.514 21.4487 90.514 26.6031C90.514 31.8414 86.6565 35.8069 81.3404 35.8069ZM81.3404 21.5899C80.0054 21.592 78.7259 22.1209 77.7823 23.0605C76.8387 24 76.308 25.2736 76.3068 26.6019C76.308 27.9302 76.8387 29.2037 77.7823 30.1433C78.7259 31.0829 80.0054 31.6117 81.3404 31.6139C82.6753 31.6117 83.9548 31.0829 84.8984 30.1433C85.842 29.2037 86.3727 27.9302 86.3739 26.6019C86.3727 25.2736 85.842 24 84.8984 23.0605C83.9548 22.1209 82.6753 21.592 81.3404 21.5899Z" fill="#212121"/>
</g>
<defs>
<clipPath id="clip0_296_10107">
<rect width="117" height="48" fill="white" transform="translate(0 0.000976562)"/>
</clipPath>
</defs>
</svg>
