<svg width="128" height="48" viewBox="0 0 128 48" fill="none" xmlns="http://www.w3.org/2000/svg">
<g clip-path="url(#clip0_296_10087)">
<path d="M29.6506 11.885C29.6253 11.708 29.4736 11.6069 29.3472 11.6069C29.2208 11.6069 26.7181 11.5563 26.7181 11.5563C26.7181 11.5563 24.6199 9.53395 24.4177 9.30643C24.2154 9.10419 23.8109 9.15475 23.6593 9.20531C23.6593 9.20531 23.2548 9.33171 22.5975 9.53395C22.4964 9.18003 22.3194 8.75027 22.0919 8.29523C21.3588 6.87956 20.2465 6.12116 18.9319 6.12116C18.8308 6.12116 18.755 6.12116 18.6538 6.14644C18.6033 6.09588 18.578 6.04532 18.5274 6.02004C17.946 5.41333 17.2129 5.10997 16.3281 5.13525C14.6343 5.18581 12.9406 6.42452 11.5502 8.59859C10.5896 10.1407 9.85644 12.0619 9.62892 13.5534C7.68237 14.1602 6.31726 14.5899 6.2667 14.5899C5.28079 14.8933 5.25551 14.9186 5.12911 15.8539C5.07855 16.5618 2.5 36.5076 2.5 36.5076L24.1396 40.249L33.5184 37.9232C33.4931 37.9232 29.6759 12.0619 29.6506 11.885ZM21.5105 9.88787C21.0049 10.0395 20.4487 10.2165 19.842 10.4187C19.842 9.55923 19.7156 8.34579 19.3364 7.3346C20.6257 7.53684 21.2577 9.00307 21.5105 9.88787ZM18.7044 10.7474C17.5668 11.1013 16.3281 11.4805 15.0894 11.8597C15.4433 10.5199 16.1006 9.20531 16.9095 8.32051C17.2129 7.99187 17.6426 7.63796 18.123 7.43572C18.6286 8.42163 18.7297 9.81203 18.7044 10.7474ZM16.3787 6.27284C16.7831 6.27284 17.1118 6.34868 17.3898 6.55092C16.9348 6.77844 16.4798 7.13236 16.0753 7.5874C14.9883 8.75027 14.154 10.5451 13.8254 12.2895C12.7889 12.6181 11.7777 12.9215 10.8676 13.1995C11.4744 10.444 13.7748 6.34868 16.3787 6.27284Z" fill="#95BF47"/>
<path d="M29.3473 11.6066C29.2209 11.6066 26.7182 11.556 26.7182 11.556C26.7182 11.556 24.62 9.53361 24.4177 9.30609C24.3419 9.23025 24.2408 9.17969 24.1396 9.17969V40.2487L33.5185 37.9229C33.5185 37.9229 29.7012 12.0616 29.6759 11.8846C29.6254 11.7077 29.4737 11.6066 29.3473 11.6066Z" fill="#5E8E3E"/>
<path d="M18.9318 16.4347L17.8447 20.5047C17.8447 20.5047 16.6313 19.9486 15.1904 20.0497C13.0668 20.1761 13.0668 21.5159 13.0668 21.8446C13.1932 23.6647 17.9711 24.0692 18.2492 28.3415C18.4515 31.7037 16.4796 34.0042 13.5977 34.1812C10.1597 34.3581 8.26367 32.3357 8.26367 32.3357L8.99679 29.2263C8.99679 29.2263 10.9181 30.6672 12.4349 30.5661C13.4208 30.5156 13.8 29.6813 13.7494 29.1252C13.5977 26.7489 9.70462 26.9005 9.45183 22.9822C9.24959 19.6958 11.3984 16.3841 16.151 16.0808C17.9964 15.9544 18.9318 16.4347 18.9318 16.4347Z" fill="white"/>
<path d="M46.2092 25.1067C45.1221 24.5252 44.566 24.0196 44.566 23.3371C44.566 22.4776 45.3496 21.9214 46.5631 21.9214C47.9788 21.9214 49.2427 22.5029 49.2427 22.5029L50.2287 19.4693C50.2287 19.4693 49.3186 18.7614 46.6389 18.7614C42.8975 18.7614 40.2937 20.9102 40.2937 23.9185C40.2937 25.6376 41.5071 26.9268 43.125 27.8622C44.4396 28.5953 44.8946 29.1262 44.8946 29.9099C44.8946 30.7188 44.2373 31.3761 43.0239 31.3761C41.229 31.3761 39.51 30.4407 39.51 30.4407L38.4482 33.4743C38.4482 33.4743 40.0156 34.5361 42.67 34.5361C46.5125 34.5361 49.2933 32.6401 49.2933 29.2273C49.268 27.3819 47.8776 26.0673 46.2092 25.1067Z" fill="black"/>
<path d="M61.5288 18.7111C59.6329 18.7111 58.1413 19.6212 57.0038 20.9863L56.9532 20.961L58.5964 12.3658H54.3241L50.1529 34.2582H54.4252L55.8409 26.7754C56.397 23.944 57.8633 22.1997 59.2284 22.1997C60.189 22.1997 60.5682 22.857 60.5682 23.7923C60.5682 24.3738 60.5177 25.1069 60.3913 25.6883L58.7733 34.2582H63.0456L64.7141 25.4103C64.8911 24.4749 65.0175 23.3626 65.0175 22.6042C65.0428 20.1773 63.7788 18.7111 61.5288 18.7111Z" fill="black"/>
<path d="M74.7246 18.7107C69.5675 18.7107 66.1547 23.3622 66.1547 28.5446C66.1547 31.8562 68.2024 34.5359 72.0449 34.5359C77.1009 34.5359 80.5137 30.0108 80.5137 24.702C80.539 21.6432 78.7441 18.7107 74.7246 18.7107ZM72.6263 31.2748C71.1601 31.2748 70.5534 30.0361 70.5534 28.4687C70.5534 26.0166 71.8174 22.0224 74.1431 22.0224C75.6599 22.0224 76.1655 23.3369 76.1655 24.6009C76.1655 27.23 74.8763 31.2748 72.6263 31.2748Z" fill="black"/>
<path d="M91.4857 18.7107C88.6038 18.7107 86.9606 21.264 86.9606 21.264H86.9101L87.1629 18.9635H83.3709C83.1939 20.5056 82.84 22.8819 82.5114 24.6515L79.5283 40.325H83.8006L84.9888 33.9798H85.0899C85.0899 33.9798 85.9747 34.5359 87.5926 34.5359C92.6233 34.5359 95.9097 29.3788 95.9097 24.1712C95.9097 21.2893 94.6204 18.7107 91.4857 18.7107ZM87.3904 31.3254C86.2781 31.3254 85.6208 30.6934 85.6208 30.6934L86.3286 26.6992C86.8342 24.0195 88.2246 22.2499 89.7161 22.2499C91.0307 22.2499 91.4352 23.4633 91.4352 24.6009C91.4352 27.3817 89.792 31.3254 87.3904 31.3254Z" fill="black"/>
<path d="M102.027 12.568C100.662 12.568 99.5745 13.655 99.5745 15.0454C99.5745 16.3094 100.383 17.1942 101.597 17.1942H101.647C102.987 17.1942 104.125 16.2841 104.15 14.7168C104.15 13.4781 103.316 12.568 102.027 12.568Z" fill="black"/>
<path d="M96.0356 34.2327H100.308L103.215 19.0648H98.9175L96.0356 34.2327Z" fill="black"/>
<path d="M114.11 19.0397H111.127L111.279 18.3319C111.532 16.8657 112.391 15.5764 113.832 15.5764C114.591 15.5764 115.198 15.8039 115.198 15.8039L116.032 12.4417C116.032 12.4417 115.299 12.0625 113.706 12.0625C112.189 12.0625 110.672 12.4923 109.51 13.4782C108.043 14.7169 107.361 16.5118 107.032 18.3319L106.906 19.0397H104.909L104.277 22.2756H106.274L103.999 34.2582H108.271L110.546 22.2756H113.504L114.11 19.0397Z" fill="black"/>
<path d="M124.424 19.0648C124.424 19.0648 121.745 25.8145 120.557 29.5054H120.506C120.43 28.3172 119.444 19.0648 119.444 19.0648H114.944L117.523 32.994C117.574 33.2973 117.548 33.4996 117.422 33.7018C116.916 34.6625 116.082 35.5978 115.096 36.2804C114.287 36.8618 113.377 37.241 112.669 37.4938L113.857 41.1341C114.717 40.9571 116.537 40.224 118.054 38.8084C120 36.9882 121.821 34.1569 123.666 30.3143L128.899 19.0648H124.424Z" fill="black"/>
</g>
<defs>
<clipPath id="clip0_296_10087">
<rect width="127" height="48" fill="white" transform="translate(0.5 0.000976562)"/>
</clipPath>
</defs>
</svg>
