<svg width="121" height="48" viewBox="0 0 121 48" fill="none" xmlns="http://www.w3.org/2000/svg">
<g clip-path="url(#clip0_296_10092)">
<path d="M39.9253 32.4274L41.3934 28.996C43.0009 30.1864 45.0975 30.8165 47.1947 30.8165C48.7325 30.8165 49.7109 30.2215 49.7109 29.3112C49.6758 26.79 40.4496 28.7509 40.3794 22.4123C40.3443 19.1908 43.2104 16.7047 47.2649 16.7047C49.6758 16.7047 52.0878 17.3002 53.8 18.666L52.4281 22.1707C50.8527 21.1577 48.9069 20.4514 47.0549 20.4514C45.7968 20.4514 44.9577 21.0464 44.9577 21.8173C44.9928 24.3034 54.2897 22.9375 54.3945 28.996C54.3945 32.2876 51.5981 34.5988 47.6137 34.5988C44.6785 34.5988 41.9874 33.8986 39.9248 32.4274H39.9253ZM98.3833 27.7534C98.0128 28.4119 97.4737 28.9599 96.8215 29.3413C96.1692 29.7227 95.4273 29.9237 94.6717 29.9238C92.3169 29.9238 90.4082 28.011 90.4082 25.6517C90.4082 23.2924 92.3169 21.3797 94.6717 21.3797C95.4273 21.3798 96.1692 21.5808 96.8215 21.9622C97.4737 22.3436 98.0128 22.8916 98.3833 23.5501L102.465 21.2845C100.936 18.5522 98.0199 16.7047 94.6717 16.7047C89.74 16.7047 85.7422 20.7101 85.7422 25.6517C85.7422 30.5929 89.74 34.5988 94.6717 34.5988C98.0199 34.5988 100.936 32.7512 102.465 30.019L98.3833 27.7534ZM57.043 34.2484H62.1456V9.25684H57.0435L57.043 34.2484ZM105.042 9.25684V34.2484H110.144V26.761L116.191 34.2484H122.713L115.024 25.3535L122.153 17.0535H115.911L110.144 23.954V9.25684H105.042ZM77.8658 17.0545V19.0861C77.0272 17.6851 74.9651 16.7047 72.7983 16.7047C68.3248 16.7047 64.7951 20.6619 64.7951 25.6342C64.7951 30.6064 68.3248 34.5988 72.7983 34.5988C74.9651 34.5988 77.0272 33.6184 77.8658 32.2174V34.2484H82.9684V17.0545H77.8658ZM77.8658 27.788C77.132 29.0135 75.5942 29.9233 73.882 29.9233C71.5267 29.9233 69.618 28.011 69.618 25.6517C69.618 23.2924 71.5267 21.3797 73.882 21.3797C75.5942 21.3797 77.132 22.325 77.8658 23.5851V27.788Z" fill="black"/>
<path d="M12.978 8.70508C11.3245 8.70508 9.98417 10.0484 9.98417 11.705C9.98378 12.0985 10.0609 12.4883 10.2111 12.8521C10.3614 13.2158 10.5818 13.5464 10.8598 13.825C11.1378 14.1035 11.468 14.3246 11.8314 14.4756C12.1949 14.6266 12.5845 14.7045 12.978 14.7049H15.9724V11.705C15.9731 10.9101 15.658 10.1475 15.0965 9.58494C14.5349 9.02237 13.7729 8.70588 12.978 8.70508ZM12.978 16.7048H4.99388C3.3403 16.7048 2 18.0481 2 19.7052C2 21.3618 3.3403 22.7051 4.99388 22.7051H12.9785C14.6316 22.7051 15.9724 21.3618 15.9724 19.7052C15.9724 18.0481 14.6316 16.7048 12.978 16.7048Z" fill="#36C5F0"/>
<path d="M31.9412 19.7052C31.9412 18.0481 30.6004 16.7048 28.9468 16.7048C27.2932 16.7048 25.9529 18.0481 25.9529 19.7052V22.7051H28.9468C29.7417 22.7043 30.5037 22.3878 31.0652 21.8252C31.6268 21.2626 31.9418 20.5001 31.9412 19.7052ZM23.957 19.7052V11.705C23.9577 10.9101 23.6426 10.1475 23.081 9.58494C22.5195 9.02237 21.7575 8.70588 20.9626 8.70508C19.3091 8.70508 17.9688 10.0484 17.9688 11.705V19.7047C17.9688 21.3623 19.3091 22.7056 20.9626 22.7056C21.7575 22.7048 22.5195 22.3883 23.081 21.8257C23.6426 21.2631 23.9577 20.5006 23.957 19.7057" fill="#2EB67D"/>
<path d="M20.9626 38.7051C21.7575 38.7043 22.5195 38.3878 23.081 37.8252C23.6426 37.2626 23.9577 36.5001 23.957 35.7052C23.9577 34.9103 23.6426 34.1477 23.081 33.5852C22.5195 33.0226 21.7575 32.7061 20.9626 32.7053H17.9688V35.7052C17.9688 37.3618 19.3091 38.7051 20.9626 38.7051ZM20.9626 30.7054H28.9473C30.6004 30.7054 31.9412 29.3621 31.9412 27.705C31.9418 26.9101 31.6268 26.1475 31.0652 25.5849C30.5037 25.0224 29.7417 24.7059 28.9468 24.7051H20.9626C19.3091 24.7051 17.9688 26.0484 17.9688 27.705C17.9684 28.0985 18.0455 28.4883 18.1957 28.8521C18.346 29.2158 18.5664 29.5464 18.8444 29.825C19.1224 30.1035 19.4526 30.3246 19.816 30.4756C20.1794 30.6266 20.5691 30.7045 20.9626 30.7049" fill="#ECB22E"/>
<path d="M2 27.705C1.99961 28.0985 2.07673 28.4883 2.22697 28.8521C2.37722 29.2158 2.59763 29.5464 2.87564 29.825C3.15365 30.1035 3.4838 30.3246 3.84725 30.4756C4.2107 30.6266 4.60032 30.7045 4.99388 30.7049C5.78875 30.7041 6.55075 30.3876 7.11229 29.825C7.67383 29.2624 7.98892 28.4998 7.98826 27.705V24.7051H4.99388C3.3403 24.7051 2 26.0484 2 27.705ZM9.98417 27.705V35.7047C9.98417 37.3618 11.3245 38.7051 12.9781 38.7051C13.7729 38.7043 14.5349 38.3878 15.0965 37.8252C15.658 37.2626 15.9731 36.5001 15.9724 35.7052V27.705C15.9728 27.3114 15.8957 26.9215 15.7454 26.5578C15.5951 26.194 15.3747 25.8634 15.0966 25.5848C14.8186 25.3062 14.4883 25.0852 14.1248 24.9342C13.7613 24.7833 13.3716 24.7054 12.9781 24.7051C11.3245 24.7051 9.98417 26.0484 9.98417 27.705Z" fill="#E01E5A"/>
</g>
<defs>
<clipPath id="clip0_296_10092">
<rect width="121" height="48" fill="white" transform="translate(0 0.000976562)"/>
</clipPath>
</defs>
</svg>
