<svg width="37" height="36" viewBox="0 0 37 36" fill="none" xmlns="http://www.w3.org/2000/svg">
<path fill-rule="evenodd" clip-rule="evenodd" d="M33.7129 0.0477422C28.7198 0.475102 23.4091 2.6382 19.1034 5.99836C18.0933 6.78656 16.7714 7.98117 16.1654 8.65357L15.6733 9.19934L15.1306 9.24258C11.9804 9.49352 9.83695 10.0735 7.30935 11.3587C5.37555 12.342 2.66036 14.4251 2.39718 15.1272C2.27371 15.4569 2.46777 15.8918 2.79641 16.0219C2.90083 16.0632 4.23613 16.2734 5.76367 16.4889C7.29121 16.7045 8.58412 16.8957 8.63678 16.9139C8.70189 16.9364 8.60486 17.0924 8.33388 17.401C7.88641 17.9107 7.79134 18.2037 7.96635 18.534C8.15008 18.8809 17.8668 28.5323 18.0859 28.5855C18.3917 28.6597 18.5913 28.5737 19.0849 28.155C19.3855 27.8999 19.556 27.7962 19.5754 27.8566C19.5918 27.9075 19.7828 29.2148 19.9999 30.7617C20.4143 33.7136 20.4394 33.8137 20.8173 34.0164C21.1417 34.1904 21.4971 34.0776 21.9168 33.6675C23.0783 32.5328 24.3774 30.6913 25.2358 28.9629C26.3869 26.6451 26.9948 24.4481 27.2089 21.832L27.2895 20.8477L28.0803 20.0742C29.4719 18.7132 30.58 17.383 31.6828 15.75C34.6457 11.3625 36.3339 6.47213 36.4695 1.88395L36.5104 0.498305L36.2613 0.249187L36.0121 0L35.0031 0.0118125C34.4481 0.0183516 33.8676 0.0344531 33.7129 0.0477422ZM27.4731 6.80737C28.0371 7.02162 28.4077 7.26342 28.8395 7.69873C29.5468 8.41169 29.8856 9.25432 29.8856 10.3008C29.8856 11.3598 29.5442 12.197 28.8149 12.9262C28.0856 13.6555 27.2485 13.9969 26.1895 13.9969C25.1304 13.9969 24.2933 13.6555 23.564 12.9262C22.8347 12.197 22.4933 11.3598 22.4933 10.3008C22.4933 8.69667 23.4023 7.38042 24.9066 6.80646C25.6283 6.53105 26.747 6.53147 27.4731 6.80737ZM6.92383 24.0806C6.09358 24.2634 5.33174 24.6543 4.70104 25.2212C4.07069 25.7878 3.34809 27.1297 2.43241 29.4344C1.78427 31.0657 0.490234 34.9177 0.490234 35.2158C0.490234 35.6721 0.813039 36 1.26234 36C1.57178 36 5.36873 34.7283 7.02522 34.0699C8.50171 33.483 9.99564 32.7645 10.6178 32.3421C12.0094 31.397 12.7577 29.4915 12.4133 27.7702C12.2714 27.0617 11.8685 26.195 11.4453 25.6883C10.3462 24.3723 8.53096 23.7268 6.92383 24.0806Z" fill="#7F56D9"/>
</svg>
