<svg width="39" height="36" viewBox="0 0 39 36" fill="none" xmlns="http://www.w3.org/2000/svg">
<path fill-rule="evenodd" clip-rule="evenodd" d="M20.4131 0.0612904C16.5864 0.49901 13.1348 2.11354 10.5939 4.65453C9.47375 5.77467 8.76628 6.74107 8.76628 7.15106C8.76628 7.67716 8.92473 7.73142 10.4618 7.7317C12.732 7.73216 14.3492 8.0241 16.0747 8.74506C16.9987 9.13111 17.7693 9.57003 19.7116 10.8165C21.3072 11.8405 22.1517 12.1775 23.2762 12.2388C23.9028 12.273 24.252 12.2445 24.6629 12.1259C25.2242 11.9638 26.2367 11.4688 26.6368 11.1612L26.86 10.9896L26.6368 10.8741C25.9631 10.5252 17.6767 5.6679 17.7058 5.63887C17.7736 5.57111 19.6807 5.79796 20.636 5.98738C21.8769 6.23347 23.0458 6.62191 24.1248 7.14662C26.7061 8.402 28.8969 10.8011 30.0654 13.6524C30.3757 14.4094 30.526 14.5722 30.9149 14.5722C31.2971 14.5722 31.5777 14.2536 31.5069 13.8999C31.328 13.0053 30.1903 10.9276 29.2082 9.70176L28.5822 8.92043L28.8711 8.07901C29.4415 6.41761 29.331 4.83101 28.5321 3.21278C27.8052 1.74043 26.4582 0.581378 25.0267 0.196351C24.3609 0.0171951 21.5244 -0.0658194 20.4131 0.0612904ZM9.20825 12.9751C8.47323 13.7682 7.39793 15.5769 6.88995 16.8748C6.69906 17.3626 6.5053 17.7881 6.45944 17.8205C6.41359 17.853 6.17841 17.9058 5.93686 17.9378C5.32729 18.0186 4.27084 18.3906 3.64398 18.745C3.35473 18.9087 2.78287 19.3783 2.37335 19.7887C1.17121 20.9933 0.580129 22.3551 0.577171 23.9276C0.575137 24.962 0.712138 25.4956 1.27235 26.6361C2.78602 29.7179 5.22615 32.35 8.12185 34.0248C9.70745 34.942 11.9588 35.7011 13.7891 35.9358C14.5242 36.0301 14.651 36.0248 14.855 35.8912C15.29 35.6061 15.2527 35.3813 14.5873 34.28C13.5671 32.5914 12.9275 30.9353 12.6528 29.2708C12.4735 28.1847 12.4564 27.484 12.5435 24.7872C12.6218 22.3622 12.5455 21.763 12.0232 20.702C11.63 19.9034 10.787 19.0594 9.9355 18.612C9.57756 18.4239 9.25956 18.27 9.22887 18.27C9.19817 18.27 9.17303 20.6703 9.17303 23.604C9.17303 27.2066 9.14262 28.9075 9.07938 28.8443C8.88655 28.6515 7.96082 26.3698 7.7053 25.4574C7.30188 24.0173 7.19317 23.2452 7.19437 21.8291C7.19686 18.9257 7.90461 16.9742 10.0909 13.8419C10.4224 13.3669 10.4441 13.1625 10.1899 12.9083C9.92154 12.6399 9.49177 12.6691 9.20825 12.9751ZM35.9603 16.3056C35.8819 16.3946 35.7031 16.6961 35.563 16.9758C34.5454 19.0056 32.7906 21.0339 31.0499 22.1922C30.6252 22.4748 29.5556 23.0846 28.673 23.5476C26.8369 24.5104 26.4056 24.7835 25.7816 25.378C25.1789 25.9523 24.8341 26.4666 24.5554 27.2071C24.3073 27.8662 24.169 29.0873 24.2771 29.6637L24.3385 29.991L28.473 27.6364C30.7469 26.3414 32.8363 25.1513 33.1159 24.9917L33.6243 24.7015L33.4496 24.9756C32.276 26.8158 30.6567 28.4996 28.968 29.636C28.0779 30.2349 26.5797 30.915 25.6063 31.162C23.9302 31.5871 22.6027 31.6538 20.2093 31.4329C19.6158 31.3782 19.5322 31.3915 19.3542 31.5695C19.1149 31.8088 19.1008 32.1395 19.3187 32.4076C19.5394 32.6792 20.3152 32.7831 22.1613 32.7884C23.4592 32.792 24.7133 32.6922 25.176 32.5483C25.2767 32.517 25.4556 32.6714 25.7288 33.0256C26.8136 34.4317 28.8127 35.3739 30.704 35.3706C32.8253 35.367 34.4784 34.4037 35.6733 32.475C36.8462 30.5818 37.7359 28.3916 38.1747 26.3179C38.3965 25.2699 38.4205 24.9638 38.4221 23.1695C38.4238 21.357 38.402 21.0788 38.1743 20.0103C37.7958 18.2335 37.1089 16.4437 36.7269 16.2393C36.4576 16.0952 36.1199 16.1244 35.9603 16.3056Z" fill="#7F56D9"/>
</svg>
