<svg width="37" height="36" viewBox="0 0 37 36" fill="none" xmlns="http://www.w3.org/2000/svg">
<path fill-rule="evenodd" clip-rule="evenodd" d="M17.7589 0.0750463C16.8015 0.293596 15.7709 1.07175 15.3215 1.91548C14.7794 2.93293 14.7792 4.33415 15.3212 5.35274C15.6887 6.04357 16.5068 6.74622 17.343 7.08931C17.548 7.17347 17.5402 7.17762 17.0658 7.2356C16.4593 7.30976 15.5357 7.62316 15.0026 7.93571C14.7805 8.06596 14.3127 8.45753 13.963 8.80583C13.4508 9.31583 13.2627 9.56421 12.9963 10.0819C12.5211 11.0055 12.3835 11.6519 12.3829 12.9645C12.3824 13.9526 12.3936 14.0439 12.5421 14.2662C12.8826 14.7759 12.5809 14.7513 18.4994 14.7514C23.6636 14.7516 23.8151 14.7478 24.0979 14.6108C24.5881 14.3736 24.696 14.0903 24.696 13.0419C24.696 12.0293 24.5816 11.3347 24.292 10.5889C23.594 8.79127 21.8607 7.44634 19.9713 7.23644L19.5308 7.18747L20.0795 6.91643C21.9169 6.00909 22.6562 3.87651 21.7715 2.03692C21.4923 1.45642 20.9143 0.816116 20.3982 0.515452C19.6152 0.0592145 18.5827 -0.113036 17.7589 0.0750463ZM9.11047 7.44465C8.89262 7.56384 8.12636 8.32701 7.63776 8.91138C6.06204 10.7959 4.85755 13.2207 4.32005 15.5899C4.11965 16.4734 4.11247 16.6569 4.26544 16.9793C4.60319 17.691 5.65942 17.7678 6.0892 17.112C6.15386 17.0133 6.28284 16.608 6.37586 16.2115C6.63501 15.1065 6.93785 14.2433 7.42435 13.2229C8.09745 11.8109 8.82683 10.74 9.8685 9.63408C10.4192 9.04943 10.6233 8.71492 10.6233 8.39695C10.6233 8.11697 10.3223 7.63477 10.0597 7.4939C9.79053 7.34959 9.3281 7.32559 9.11047 7.44465ZM26.9646 7.50375C26.6488 7.69627 26.4557 8.03845 26.4554 8.40588C26.455 8.79682 26.5257 8.92714 27.0161 9.4391C28.7969 11.2982 30.0156 13.5202 30.6151 16.0017C30.8598 17.0142 30.998 17.291 31.3395 17.4531C31.9702 17.7523 32.7101 17.4086 32.8614 16.7462C32.9781 16.235 32.4092 14.1618 31.7348 12.641C31.0113 11.0094 29.9337 9.3966 28.71 8.1138C28.4208 7.81061 28.0975 7.51768 27.9916 7.46294C27.7145 7.31968 27.2352 7.33875 26.9646 7.50375ZM5.86748 21.3294C4.57258 21.6112 3.47364 22.6731 3.12626 23.9784C3.00903 24.4189 2.99616 25.2757 3.09994 25.7263C3.32778 26.7149 4.18052 27.7623 5.08025 28.1586C5.34046 28.2731 5.55415 28.3861 5.55521 28.4097C5.55626 28.4332 5.36269 28.4727 5.12508 28.4976C4.58131 28.5544 3.63801 28.8766 3.1112 29.1855C2.88906 29.3158 2.41924 29.7085 2.067 30.0582C1.52612 30.5954 1.37568 30.7976 1.0988 31.36C0.613363 32.346 0.49086 32.9186 0.491212 34.2008C0.491493 35.4351 0.559746 35.6303 1.07291 35.8632C1.35774 35.9925 1.59585 35.9983 6.6431 35.9998C11.7737 36.0013 11.9236 35.9976 12.2065 35.8606C12.6954 35.624 12.8046 35.339 12.804 34.3031C12.8032 32.8766 12.5997 32.0284 12.0245 31.0544C11.6439 30.4099 10.7999 29.5641 10.1659 29.1919C9.57628 28.8458 8.74662 28.5578 8.16345 28.4968C7.92963 28.4724 7.74014 28.4332 7.74232 28.4097C7.7445 28.3861 7.9741 28.2584 8.25246 28.1258C9.43956 27.5606 10.2694 26.2267 10.2694 24.8839C10.2694 23.2145 9.02702 21.672 7.40556 21.3284C6.82809 21.206 6.43342 21.2063 5.86748 21.3294ZM29.6566 21.3073C28.3505 21.5547 27.1585 22.7157 26.8449 24.0461C26.4592 25.682 27.2732 27.42 28.7556 28.1258C29.0339 28.2584 29.2635 28.3906 29.2657 28.4197C29.2679 28.4487 29.1639 28.4725 29.0346 28.4725C28.3875 28.4725 27.0973 28.9696 26.3821 29.4946C25.7086 29.989 25.0532 30.8045 24.6957 31.593C24.3503 32.3548 24.2651 32.7907 24.224 34.0057C24.1871 35.0982 24.1918 35.1522 24.3482 35.4306C24.4549 35.6206 24.6107 35.7682 24.8015 35.8606C25.0844 35.9976 25.2343 36.0013 30.3649 35.9998C35.4122 35.9983 35.6503 35.9925 35.9351 35.8632C36.1031 35.787 36.2964 35.6267 36.379 35.4953C36.5159 35.2774 36.5233 35.1839 36.4964 34.0312C36.4638 32.6354 36.3759 32.251 35.8613 31.2518C35.5192 30.5875 34.551 29.5691 33.8968 29.1855C33.37 28.8766 32.4267 28.5544 31.8829 28.4976C31.6453 28.4727 31.4518 28.4332 31.4528 28.4097C31.4539 28.3861 31.6676 28.2731 31.9278 28.1586C32.2738 28.0061 32.5344 27.8172 32.8988 27.4549C33.6457 26.712 33.9823 25.9132 33.9823 24.8839C33.9823 23.8758 33.6444 23.0576 32.9328 22.3427C32.0418 21.4476 30.8708 21.0775 29.6566 21.3073ZM13.6137 25.6933C12.6363 26.0391 12.6965 27.3976 13.7038 27.7267C15.1674 28.2048 16.6681 28.4271 18.4336 28.4271C20.1792 28.4272 21.3242 28.2726 22.8842 27.8262C23.5394 27.6388 23.6726 27.5745 23.8793 27.3457C24.2037 26.9866 24.2667 26.6047 24.0679 26.2031C23.7506 25.562 23.3476 25.4747 22.1629 25.7903C20.6739 26.187 20.1587 26.2513 18.4688 26.2513C16.7855 26.2513 16.2666 26.187 14.7958 25.7967C13.8909 25.5565 13.9786 25.5642 13.6137 25.6933Z" fill="#7F56D9"/>
</svg>
