<svg width="37" height="36" viewBox="0 0 37 36" fill="none" xmlns="http://www.w3.org/2000/svg">
<path fill-rule="evenodd" clip-rule="evenodd" d="M21.307 0.159899C21.1765 0.247789 20.9978 0.426524 20.9099 0.557024C20.7505 0.793555 20.75 0.802133 20.75 3.4989C20.75 6.10369 20.7553 6.21296 20.8954 6.45919C21.1344 6.87945 21.3502 6.99673 21.875 6.9916C22.1307 6.98907 22.475 6.93261 22.6566 6.86335C23.7272 6.45504 24.5869 7.83303 23.7572 8.62742C23.4281 8.94249 23.0247 9.03544 22.6358 8.88582C22.4687 8.82155 22.158 8.75532 21.9453 8.73872C21.4984 8.70378 21.1862 8.86571 20.9099 9.27577C20.7504 9.51237 20.75 9.52018 20.75 12.2344C20.75 14.9486 20.7504 14.9564 20.9099 15.193C20.9978 15.3235 21.1765 15.5022 21.307 15.5901C21.5388 15.7463 21.5863 15.75 23.3971 15.75H25.25V15.9813C25.25 16.6589 25.6648 17.5644 26.2377 18.1373C27.8106 19.7101 30.4618 19.3534 31.5679 17.4203C31.8016 17.0118 32 16.351 32 15.9813V15.75H33.8529C35.6637 15.75 35.7112 15.7463 35.943 15.5901C36.0735 15.5022 36.2522 15.3235 36.3401 15.193L36.5 14.9558V8.93405C36.5 2.30668 36.5103 2.47803 36.0656 1.70073C35.7931 1.22457 35.2181 0.652508 34.7626 0.404586C34.0059 -0.00716373 34.1339 8.12731e-06 27.5659 8.12731e-06H21.5442L21.307 0.159899ZM2.96678 6.86166C2.16458 7.07738 1.35957 7.70759 0.932144 8.45473C0.494308 9.22001 0.500004 9.13402 0.500004 14.9562V20.25H2.74571H4.99135L5.03642 19.916C5.21607 18.5842 6.09238 17.4867 7.30267 17.0776C7.93646 16.8635 8.85784 16.8639 9.45915 17.0786C10.7187 17.5283 11.5289 18.5481 11.7135 19.916L11.7586 20.25H12.8793H14V18.3313C14 16.4814 14.0057 16.4014 14.1582 16.0989C14.2738 15.8697 14.4009 15.7426 14.6301 15.627C15.0211 15.4298 15.2502 15.428 15.6929 15.6184C16.5079 15.969 17.375 15.4679 17.375 14.6462C17.375 13.7874 16.524 13.274 15.6929 13.6316C15.2502 13.822 15.0211 13.8202 14.6301 13.6231C14.4009 13.5075 14.2738 13.3803 14.1582 13.1511C14.0014 12.8402 14 12.8103 14 9.79369V6.75001L8.67383 6.75465C4.2421 6.75851 3.28367 6.77644 2.96678 6.86166ZM7.83985 19.2589C7.30534 19.5848 7.1221 20.2039 7.38156 20.8071C7.57203 21.2498 7.5702 21.4789 7.37305 21.8699C7.25745 22.0991 7.13033 22.2262 6.90111 22.3418C6.59019 22.4986 6.56031 22.5 3.54369 22.5H0.500004V27.7938C0.500004 33.616 0.494308 33.53 0.932144 34.2953C1.20763 34.7768 1.72316 35.2924 2.20473 35.5679C2.97001 36.0057 2.88402 36 8.70617 36H14V33.7543V31.5086L13.666 31.4599C12.6587 31.3131 11.8546 30.8491 11.2987 30.094C10.4475 28.9378 10.4475 27.3122 11.2987 26.156C11.8502 25.4069 12.6965 24.9172 13.666 24.7864L14 24.7414V23.6207V22.5H12.0813C10.2313 22.5 10.1514 22.4943 9.84917 22.3418C9.48988 22.1605 9.2217 21.7541 9.21988 21.388C9.21924 21.2598 9.28611 20.9984 9.36845 20.8071C9.63071 20.1973 9.47595 19.6492 8.9382 19.2832C8.64303 19.0823 8.1474 19.0714 7.83985 19.2589ZM16.25 24.4187C16.25 26.2686 16.2443 26.3486 16.0918 26.6511C15.9762 26.8803 15.8491 27.0075 15.6199 27.123C15.2289 27.3202 14.9998 27.322 14.5571 27.1316C13.7421 26.781 12.875 27.2821 12.875 28.1038C12.875 28.9626 13.726 29.476 14.5571 29.1184C14.9998 28.928 15.2289 28.9298 15.6199 29.127C15.8491 29.2425 15.9762 29.3697 16.0918 29.5989C16.2486 29.9098 16.25 29.9397 16.25 32.9563V36H21.5438C27.366 36 27.28 36.0057 28.0453 35.5679C28.5268 35.2924 29.0424 34.7768 29.3179 34.2953C29.7557 33.53 29.75 33.616 29.75 27.7938V22.5H27.5043H25.2586L25.2135 22.834C24.9751 24.6 23.6632 25.8017 21.9453 25.8273C20.175 25.8538 18.7784 24.6274 18.5364 22.834L18.4913 22.5H17.3707H16.25V24.4187Z" fill="#7F56D9"/>
</svg>
