<svg width="43" height="36" viewBox="0 0 43 36" fill="none" xmlns="http://www.w3.org/2000/svg">
<path fill-rule="evenodd" clip-rule="evenodd" d="M20.6532 0.0694951C17.6526 0.461881 15.2295 2.6997 14.6277 5.63435C14.1745 7.84424 14.835 10.1657 16.38 11.792C17.3359 12.7983 18.3026 13.395 19.6258 13.7955C20.2522 13.9851 20.4677 14.0097 21.5002 14.0097C22.5327 14.0097 22.7482 13.9851 23.3746 13.7955C24.7004 13.3943 25.637 12.8212 26.5782 11.8354C27.8563 10.4966 28.4999 8.88583 28.4999 7.0256C28.4999 5.10245 27.8145 3.48254 26.4064 2.07753C25.2481 0.92185 23.92 0.271763 22.3069 0.0706215C21.5535 -0.0232712 21.3634 -0.0234321 20.6532 0.0694951ZM6.69228 5.2175C6.06689 5.3134 5.41318 5.57328 4.8479 5.95078C2.99547 7.1878 2.37507 9.6842 3.42116 11.6921C3.7619 12.346 4.66204 13.2293 5.32846 13.5635C7.07413 14.4391 9.05496 14.1221 10.434 12.7465C11.0794 12.1026 11.4586 11.4531 11.6411 10.6789C12.0037 9.14072 11.5732 7.59378 10.4791 6.50263C9.46642 5.49274 8.04451 5.01016 6.69228 5.2175ZM35.0129 5.2175C34.3876 5.3134 33.7338 5.57328 33.1686 5.95078C31.3161 7.1878 30.6957 9.6842 31.7418 11.6921C32.0826 12.346 32.9827 13.2293 33.6491 13.5635C35.3948 14.4391 37.3756 14.1221 38.7546 12.7465C39.4001 12.1026 39.7793 11.4531 39.9617 10.6789C40.3244 9.14072 39.8939 7.59378 38.7998 6.50263C37.7871 5.49274 36.3652 5.01016 35.0129 5.2175ZM5.65029 16.8009C4.96319 16.8929 4.53508 17.0308 3.87429 17.3733C2.45311 18.1101 1.4491 19.3594 1.06202 20.8729C0.912531 21.4574 0.903359 21.7801 0.903359 26.4544C0.903359 32.0176 0.887751 31.8536 1.48281 32.5296C1.66206 32.7333 1.99427 32.9978 2.22099 33.1174L2.63317 33.3348H5.43241H8.23157L8.22747 29.9959C8.22224 25.724 8.32989 24.5195 8.87812 22.7146C9.33069 21.2248 10.1472 19.7812 11.2515 18.5185C11.4897 18.2462 11.6845 18.0061 11.6845 17.9849C11.6845 17.9636 11.4513 17.7944 11.1661 17.6086C10.4975 17.173 9.72436 16.9075 8.82381 16.8044C8.01973 16.7122 6.3266 16.7104 5.65029 16.8009ZM19.0598 16.8409C16.6043 17.2431 14.629 18.3102 12.9902 20.1196C11.8417 21.3879 11.1461 22.8996 10.7913 24.8985C10.5864 26.0528 10.5037 29.5124 10.6165 32.2085L10.6872 33.898L10.959 34.407C11.273 34.9951 11.7012 35.399 12.3282 35.6983L12.7707 35.9095L19.167 35.9667C30.74 36.0704 31.1888 36.0189 32.0042 34.4922L32.3216 33.898L32.3445 29.766C32.3698 25.2074 32.3432 24.8515 31.8735 23.4496C30.7847 20.1997 27.8874 17.5672 24.6782 16.912C23.8263 16.7381 19.9843 16.6895 19.0598 16.8409ZM34.069 16.8041C33.2851 16.9026 32.4646 17.1979 31.8343 17.6086C31.5491 17.7944 31.3159 17.9636 31.3159 17.9849C31.3159 18.0061 31.5108 18.2462 31.7489 18.5185C33.0242 19.9767 33.852 21.5112 34.2912 23.2315C34.674 24.7306 34.7146 25.2571 34.7663 29.3925L34.8157 33.3348H37.5513H40.2868L40.7119 33.1109C41.2874 32.8076 41.7346 32.3263 41.9326 31.7971C42.0917 31.372 42.097 31.1957 42.097 26.4254C42.097 21.7799 42.0878 21.4572 41.9384 20.8729C41.6865 19.888 41.2797 19.1941 40.4919 18.4055C39.7428 17.6557 38.9432 17.1738 38.034 16.9242C37.4567 16.7657 34.9742 16.6905 34.069 16.8041Z" fill="#7F56D9"/>
</svg>
