<svg width="39" height="36" viewBox="0 0 39 36" fill="none" xmlns="http://www.w3.org/2000/svg">
<path fill-rule="evenodd" clip-rule="evenodd" d="M18.9919 0.0989994C18.3613 0.295688 18.3287 0.350393 15.6226 5.76062C14.227 8.55103 13.0804 10.8389 13.0747 10.8448C13.069 10.8507 10.5358 11.2425 7.44535 11.7153C4.3548 12.1883 1.75285 12.6031 1.66314 12.6372C1.38506 12.743 0.952271 13.1717 0.811979 13.4805C0.645584 13.8467 0.637716 14.378 0.792935 14.766C0.883081 14.9912 1.87895 16.0117 5.00244 19.0794C8.56049 22.5737 9.09092 23.1225 9.07129 23.2893C9.05887 23.3947 8.65108 25.8633 8.16513 28.7751C7.18352 34.657 7.17433 34.755 7.55638 35.2992C7.87006 35.7459 8.32027 35.9783 8.87328 35.979C9.31055 35.9795 9.35893 35.9564 14.357 33.3515C17.1305 31.9061 19.4442 30.7236 19.4987 30.7236C19.5531 30.7236 21.8501 31.8966 24.603 33.3304C27.6518 34.9182 29.7245 35.9556 29.9055 35.9843C30.4671 36.0735 31.1351 35.7748 31.4633 35.2878C31.8542 34.7078 31.8769 34.95 30.852 28.7793L29.9118 23.1189L34.0039 19.0686C36.8198 16.2814 38.1311 14.9341 38.2087 14.7484C38.3712 14.3595 38.3523 13.775 38.1646 13.3874C37.9893 13.0251 37.5521 12.6705 37.1521 12.5661C37.0066 12.5282 34.4226 12.1271 31.4098 11.6747C28.3969 11.2224 25.9273 10.8481 25.9216 10.8431C25.9159 10.8382 24.7796 8.56757 23.3964 5.79739C21.5818 2.16324 20.807 0.683257 20.6139 0.482745C20.4419 0.30407 20.2163 0.166131 19.9824 0.09672C19.5464 -0.0327638 19.4136 -0.0324696 18.9919 0.0989994Z" fill="#7F56D9"/>
</svg>
