<svg width="39" height="36" viewBox="0 0 39 36" fill="none" xmlns="http://www.w3.org/2000/svg">
<path fill-rule="evenodd" clip-rule="evenodd" d="M18.0703 0.09547C15.8781 0.595521 14.174 1.95702 13.2268 3.96519C12.8363 4.79322 12.6632 5.46422 12.5989 6.39963L12.5472 7.153L11.8885 7.53683C7.5936 10.0398 4.77161 14.4277 4.30265 19.3323L4.24445 19.9411L3.7101 20.219C2.15227 21.0292 0.921715 22.5578 0.347444 24.396C0.173803 24.9518 0.144531 25.2268 0.144531 26.3013C0.144531 27.3758 0.173803 27.6509 0.347444 28.2066C1.08159 30.5566 2.77426 32.2493 5.12426 32.9834C5.68666 33.1591 5.94812 33.186 7.07285 33.1836C8.29821 33.181 8.41607 33.1656 9.15073 32.9115L9.92956 32.6422L10.2333 32.8815C11.3941 33.7963 13.2154 34.754 14.749 35.2564C17.2176 36.0651 20.1094 36.2222 22.6947 35.6882C24.7052 35.273 27.1905 34.1243 28.7677 32.8815L29.0715 32.6422L29.8503 32.9115C30.585 33.1656 30.7028 33.181 31.9282 33.1836C33.0539 33.186 33.3135 33.1592 33.8737 32.9833C36.2674 32.2317 37.9019 30.5972 38.6535 28.2036C38.8274 27.6498 38.8565 27.3769 38.8565 26.3013C38.8565 25.2268 38.8272 24.9518 38.6536 24.396C38.0793 22.5578 36.8488 21.0292 35.2909 20.219L34.7566 19.9411L34.6984 19.3323C34.2362 14.4983 31.4711 10.1374 27.2854 7.64093L26.4533 7.14451L26.4055 6.3449C26.3095 4.73519 25.6038 3.20836 24.3991 2.00327C23.5775 1.18157 22.7823 0.690699 21.6527 0.308256C20.9396 0.0668908 20.7084 0.0306905 19.717 0.00540215C18.9752 -0.0134775 18.4135 0.0172666 18.0703 0.09547ZM13.512 10.4032C14.0453 11.4085 15.1312 12.4384 16.2962 13.0437C17.454 13.6454 18.0649 13.787 19.5005 13.787C20.9361 13.787 21.5471 13.6454 22.7049 13.0437C23.8699 12.4384 24.9557 11.4085 25.489 10.4032C25.6009 10.1923 25.7239 10.0198 25.7622 10.0198C25.8007 10.0198 26.0736 10.1819 26.3686 10.3799C28.5558 11.8483 30.2445 13.9758 31.1667 16.4246C31.3757 16.9798 31.7403 18.4258 31.8282 19.0482C31.8723 19.3611 31.8645 19.373 31.616 19.373C31.1863 19.373 30.0574 19.6332 29.46 19.8698C27.4198 20.678 25.9601 22.2634 25.2895 24.3991C25.1156 24.9528 25.0865 25.2257 25.0865 26.3013C25.0865 27.3766 25.1157 27.6499 25.2893 28.2029C25.5383 28.9958 25.9675 29.8614 26.3789 30.4004C26.5493 30.6236 26.6883 30.8351 26.6879 30.8704C26.6855 31.0734 24.7088 32.1152 23.5504 32.524C21.0515 33.4057 17.9565 33.406 15.4507 32.5248C14.3924 32.1528 12.9009 31.3888 12.3207 30.9217C12.3015 30.9062 12.4426 30.6689 12.6345 30.3945C13.1026 29.7244 13.4662 28.9848 13.7116 28.2036C13.8855 27.6498 13.9146 27.3769 13.9146 26.3013C13.9146 24.9164 13.7788 24.2918 13.2467 23.2299C12.1687 21.0784 10.0384 19.5946 7.74974 19.4011C7.16733 19.3519 7.12195 19.3339 7.1559 19.1656C7.17608 19.0653 7.23895 18.7105 7.29568 18.377C7.52587 17.023 8.31042 15.1005 9.13342 13.8736C9.73211 12.9812 10.6429 11.9537 11.3837 11.3352C12.1498 10.6954 13.0811 10.0313 13.2219 10.0242C13.2696 10.0218 13.4001 10.1923 13.512 10.4032Z" fill="#7F56D9"/>
</svg>
