<svg width="37" height="36" viewBox="0 0 37 36" fill="none" xmlns="http://www.w3.org/2000/svg">
<path fill-rule="evenodd" clip-rule="evenodd" d="M16.9425 0.0240524C13.6484 0.404488 11.0415 1.31945 8.59095 2.95546C7.36506 3.77381 6.69404 4.31776 5.7515 5.25735C3.00071 7.99935 1.25543 11.4831 0.639713 15.4609C0.484429 16.4641 0.463039 19.3851 0.604181 20.3158C0.896597 22.2446 1.36822 23.884 2.08737 25.4713L2.30323 25.9478L3.23768 25.4808C3.75166 25.224 4.18226 25.0048 4.19458 24.9937C4.20682 24.9825 4.07511 24.6458 3.90181 24.2453C1.90704 19.6359 2.25679 14.2526 4.83281 9.91356C6.19012 7.62728 7.98458 5.80996 10.2329 4.44462C14.0587 2.12134 18.6075 1.51449 22.8985 2.75493C23.357 2.88749 23.7799 3.0147 23.8381 3.03771C23.9176 3.06902 23.9843 2.96686 24.1058 2.62807C24.1948 2.37991 24.4233 1.95093 24.6135 1.67477C25.0125 1.09549 25.0913 1.19963 23.9785 0.835795C23.1362 0.560406 22.046 0.302959 21.0938 0.1545C20.3909 0.0448789 17.5382 -0.0446892 16.9425 0.0240524ZM27.8826 1.58203C26.4079 2.10811 25.5427 3.51552 25.7937 4.97978C26.1438 7.02099 28.3162 8.16976 30.1306 7.27302C32.4636 6.12003 32.4686 2.88418 30.1391 1.73753C29.6962 1.51948 29.5846 1.49514 28.943 1.47663C28.4015 1.46101 28.1525 1.48578 27.8826 1.58203ZM16.2741 8.80609C14.8571 9.13397 13.6426 10.0164 12.9126 11.2484C12.6383 11.7113 12.2988 12.6627 12.2988 12.9683C12.2988 13.1663 12.2231 13.2044 11.4896 13.3756C10.8424 13.5268 9.83948 14.0282 9.29264 14.4741C8.43221 15.1757 7.74909 16.2235 7.43092 17.3295C7.22167 18.0568 7.20359 19.4693 7.3944 20.1751C7.94272 22.2028 9.44518 23.6969 11.5183 24.2758C12.0415 24.422 12.1854 24.4256 18.4815 24.4504C25.2233 24.4769 25.9777 24.4522 26.7829 24.1787C27.3701 23.9793 28.1763 23.434 28.624 22.9334C29.2943 22.184 29.7456 21.0033 29.7456 19.9992C29.7456 18.9951 29.2943 17.8143 28.624 17.0649C27.9543 16.3162 26.6094 15.6017 25.87 15.6017C25.5724 15.6017 25.4097 15.4968 25.3543 15.2693C25.2629 14.8936 24.7562 14.1437 24.315 13.7311C23.8353 13.2823 23.1614 12.9102 22.5896 12.7782C22.2447 12.6985 22.2286 12.6839 22.1423 12.372C21.7069 10.7975 20.4042 9.4584 18.8071 8.94351C18.1092 8.7185 16.9291 8.65447 16.2741 8.80609ZM33.271 9.62283C32.79 9.89372 32.3818 10.1301 32.3639 10.148C32.3459 10.1659 32.5061 10.5376 32.72 10.9738C34.4128 14.4275 34.8043 18.1624 33.8653 21.8989C32.8299 26.0189 30.1691 29.5573 26.4936 31.7015C24.4242 32.9088 22.1064 33.6291 19.6458 33.8294C17.2831 34.0217 14.4918 33.5548 12.2851 32.598C12.1893 32.5565 12.117 32.6434 11.917 33.0406C11.7801 33.3124 11.5238 33.7119 11.3475 33.9284C11.1712 34.1449 11.0445 34.3505 11.0659 34.3852C11.185 34.578 13.6526 35.3936 14.8877 35.6485C17.2225 36.1302 20.0328 36.116 22.3194 35.6108C25.7 34.8639 28.8271 33.1462 31.2617 30.6989C33.9918 27.9545 35.7146 24.5186 36.3268 20.5972C36.4823 19.6013 36.5414 17.3946 36.4404 16.3613C36.239 14.3032 35.7642 12.4934 34.9409 10.6456C34.6525 9.99827 34.2022 9.12637 34.158 9.1294C34.1511 9.12989 33.752 9.35187 33.271 9.62283ZM6.59202 27.8011C5.42883 28.138 4.5582 29.1041 4.34557 30.2939C4.11423 31.5882 4.85603 32.9805 6.08782 33.5639C6.53834 33.7773 6.60877 33.7897 7.37358 33.7897C8.13902 33.7897 8.20854 33.7775 8.66131 33.563C9.89556 32.9784 10.6276 31.6284 10.4129 30.3328C10.242 29.3015 9.60033 28.4483 8.65983 28.0016C8.21649 27.791 8.05508 27.7525 7.52943 27.7316C7.15405 27.7167 6.79051 27.7435 6.59202 27.8011Z" fill="#7F56D9"/>
</svg>
