<svg width="39" height="36" viewBox="0 0 39 36" fill="none" xmlns="http://www.w3.org/2000/svg">
<path fill-rule="evenodd" clip-rule="evenodd" d="M18.8558 0.735572L17.4107 1.46359L18.4385 2.49136L19.4663 3.51913L20.753 2.2324L22.0397 0.945683L21.6783 0.575902C20.8994 -0.221141 20.7362 -0.211924 18.8558 0.735572ZM24.2026 2.20366C23.6071 2.43018 23.1922 2.76186 21.9747 3.98449L20.9632 5.00028L21.7934 5.85669C22.9682 7.06859 23.3361 7.87971 23.3339 9.25331C23.3308 11.1568 22.1707 12.8197 20.3978 13.4616C19.9576 13.621 19.951 13.6275 19.7948 14.0589C19.3455 15.2999 18.3669 16.2921 17.1488 16.7418C16.6499 16.926 16.6491 16.9267 16.4957 17.3474C16.2593 17.9957 15.9971 18.4162 15.5045 18.937C15.0029 19.4672 14.4625 19.8238 13.7933 20.0662C13.3515 20.226 13.347 20.2306 13.1871 20.6723C12.9388 21.3579 12.5838 21.8884 12.0193 22.4175C11.1502 23.232 10.1784 23.6155 8.97877 23.6172C7.62121 23.6192 6.72445 23.2085 5.45173 22.0019L4.6827 21.2727L2.82081 23.1435L0.958984 25.0143V25.5515V26.0887L5.80351 30.9394C8.46804 33.6073 10.7362 35.8368 10.844 35.894C11.1623 36.0629 11.5597 36.0239 11.9221 35.7881C12.0995 35.6727 13.7143 34.105 15.5104 32.3044L18.7761 29.0306H19.8307C21.9959 29.0306 23.2088 28.7003 24.5829 27.7365C25.06 27.4018 32.6715 19.8287 33.082 19.2802C33.8642 18.2349 33.8912 16.7222 33.1471 15.6223C32.8749 15.22 32.3313 14.7459 31.9708 14.5966L31.755 14.5072L31.8572 14.1301C32.0229 13.5186 31.9444 12.5969 31.6788 12.0349C31.4035 11.4526 30.9666 10.9605 30.4319 10.6305L30.0128 10.3718L30.1102 9.99628C30.2947 9.28517 30.2017 8.46309 29.8616 7.79799C29.6364 7.35752 29.0692 6.76355 28.6455 6.52441L28.2697 6.31233L28.3677 5.93442C28.742 4.49159 27.995 2.95898 26.5975 2.30244C26.1648 2.09915 26.0214 2.06961 25.3812 2.05169C24.7617 2.03441 24.5892 2.05662 24.2026 2.20366ZM13.5384 2.34976C13.0999 2.49317 12.7606 2.72165 12.4322 3.09462C11.6773 3.9522 11.7087 5.29415 12.5047 6.20078L12.75 6.48013L12.5322 6.36749C11.9264 6.05425 11.0331 6.08197 10.386 6.43419C9.5779 6.87401 9.12138 7.69529 9.17778 8.60773C9.22031 9.29649 9.42403 9.69552 10.0875 10.39L10.6242 10.9517L10.3095 10.793C10.0603 10.6674 9.86653 10.6342 9.37794 10.6334C8.849 10.6324 8.70247 10.661 8.35018 10.834C7.53528 11.2342 7.03936 12.0365 7.03936 12.9547C7.03936 13.6859 7.25847 14.147 7.94367 14.8579C8.38647 15.3172 8.43016 15.3828 8.21671 15.2684C8.01669 15.161 7.80839 15.1321 7.23692 15.1321C6.56797 15.1321 6.48066 15.1489 6.1222 15.3475C5.6789 15.593 5.3232 15.9764 5.08551 16.4649C4.95574 16.7317 4.92134 16.9291 4.91952 17.4182C4.91604 18.3278 5.10743 18.6418 6.49953 20.0113C7.84381 21.3337 8.0402 21.4472 8.97877 21.4441C9.51243 21.4424 9.69489 21.4111 9.97569 21.2733C11.1346 20.7047 11.6413 19.2864 11.0826 18.1757L10.8658 17.7448L11.2967 17.9616C12.1516 18.3918 13.2262 18.2035 13.9247 17.5011C14.413 17.01 14.5625 16.6256 14.565 15.8552C14.5669 15.2896 14.5415 15.1497 14.38 14.8382L14.1929 14.4771L14.5613 14.6594C14.8724 14.8134 15.0315 14.8418 15.5832 14.8418C16.1193 14.8418 16.2976 14.8116 16.5772 14.6739C17.7417 14.1004 18.2437 12.6877 17.6843 11.559L17.4647 11.116L17.6489 11.2425C18.0008 11.484 18.3416 11.5758 18.8856 11.5753C19.321 11.5749 19.5098 11.537 19.8291 11.3857C20.3097 11.1579 20.7196 10.7599 20.9787 10.2694C21.1451 9.9544 21.1703 9.82028 21.1696 9.25331C21.1684 8.20936 21.2038 8.25719 18.2388 5.2866C15.3471 2.38953 15.2556 2.3187 14.3495 2.27508C14.0491 2.26064 13.7176 2.29112 13.5384 2.34976ZM30.3528 25.1355C28.2172 27.2625 26.2598 29.158 26.0031 29.3477C25.0084 30.083 24.0342 30.5519 22.8665 30.8574C22.5331 30.9446 22.2455 31.0278 22.2274 31.0422C22.1653 31.0914 26.6865 35.5776 27.0103 35.7882C27.3553 36.0125 27.7651 36.0635 28.0532 35.9179C28.2784 35.8041 37.8158 26.2774 37.9418 26.0404C38.0766 25.7868 38.0746 25.3752 37.9372 25.0857C37.8774 24.9597 37.0201 24.0493 36.0321 23.0625L34.2356 21.2684L30.3528 25.1355Z" fill="#7F56D9"/>
</svg>
