<svg width="447" height="257" viewBox="0 0 447 257" fill="none" xmlns="http://www.w3.org/2000/svg">
<path d="M330.322 19.9875C330.322 18.2445 331.735 16.8315 333.478 16.8315V16.8315C335.221 16.8315 336.634 18.2445 336.634 19.9875V55.7548C336.634 57.4978 335.221 58.9108 333.478 58.9108V58.9108C331.735 58.9108 330.322 57.4978 330.322 55.7548V19.9875Z" fill="#7F56D9"/>
<rect x="401.926" y="84.6387" width="6.31188" height="42.0792" rx="3.15594" transform="rotate(90.6534 401.926 84.6387)" fill="#7F56D9"/>
<rect x="385.226" y="31.5596" width="6.31188" height="42.0792" rx="3.15594" transform="rotate(44.8104 385.226 31.5596)" fill="#7F56D9"/>
<path d="M103.094 88.366C103.094 83.7181 106.862 79.9502 111.51 79.9502H334.53C339.178 79.9502 342.946 83.7181 342.946 88.366V98.8858H103.094V88.366Z" fill="#7F56D9"/>
<path d="M103.094 98.8867H342.946V233.54C342.946 238.188 339.178 241.956 334.53 241.956H111.51C106.862 241.956 103.094 238.188 103.094 233.54V98.8867Z" fill="url(#paint0_linear_215_17750)"/>
<circle cx="191.46" cy="147.278" r="6.31188" fill="#7F56D9"/>
<circle cx="256.683" cy="147.278" r="6.31188" fill="#7F56D9"/>
<rect x="206.188" y="187.253" width="35.7673" height="12.6238" rx="6.31188" fill="#7F56D9"/>
<circle cx="115.718" cy="90.4706" r="4.20792" fill="white"/>
<circle cx="130.446" cy="90.4706" r="4.20792" fill="white"/>
<circle cx="145.173" cy="90.4706" r="4.20792" fill="white"/>
<defs>
<linearGradient id="paint0_linear_215_17750" x1="223.02" y1="98.8867" x2="205.136" y2="434.468" gradientUnits="userSpaceOnUse">
<stop stop-color="white"/>
<stop offset="0.563886" stop-color="#CED7E4"/>
</linearGradient>
</defs>
</svg>
