<svg width="47" height="38" viewBox="0 0 47 38" fill="none" xmlns="http://www.w3.org/2000/svg">
<path fill-rule="evenodd" clip-rule="evenodd" d="M19.0543 0.0878996C18.3057 0.209272 17.5555 0.620871 16.9766 1.22782C16.1265 2.11904 15.8552 2.97292 15.854 4.76202L15.8533 5.66845L10.4515 5.69939C4.43574 5.73389 4.73832 5.70473 3.44929 6.3749C2.21903 7.01457 1.11085 8.48233 0.833602 9.83975C0.77794 10.1122 0.737305 11.3688 0.737305 12.8187V15.3266L12.008 19.0831C18.2068 21.1492 23.3784 22.8396 23.5002 22.8396C23.622 22.8396 28.7935 21.1492 34.9924 19.0831L46.2631 15.3266V12.8187C46.2631 11.3688 46.2224 10.1122 46.1668 9.83975C45.8876 8.47282 44.7911 7.02071 43.5511 6.37525C42.2627 5.70473 42.5651 5.73389 36.5488 5.69939L31.1471 5.66845L31.1464 4.76202C31.1451 2.97292 30.8738 2.11904 30.0238 1.22782C29.4234 0.598464 28.6919 0.210784 27.8571 0.0798081C27.1496 -0.0312498 19.7469 -0.0244032 19.0543 0.0878996ZM27.2347 4.78932V5.6785H23.5002H19.7656V4.78932V3.90015H23.5002H27.2347V4.78932ZM0.737305 25.8584C0.737305 30.929 0.768959 33.5669 0.833602 33.8832C0.886508 34.1423 1.09306 34.6892 1.29268 35.0983C1.9312 36.4076 3.10233 37.3756 4.60521 37.8364C5.11587 37.993 5.92466 38 23.5002 38C41.0757 38 41.8845 37.993 42.3951 37.8364C43.8369 37.3943 45.0545 36.4102 45.6628 35.1954C46.2862 33.9502 46.2631 34.3089 46.2631 25.8886C46.2631 21.7174 46.2335 18.3048 46.1974 18.3048C46.1613 18.3048 41.2087 19.9453 35.1918 21.9504L24.2517 25.596H23.5002H22.7486L11.8086 21.9504C5.79164 19.9453 0.839026 18.3048 0.802926 18.3048C0.766825 18.3048 0.737305 21.7039 0.737305 25.8584Z" fill="#7F56D9"/>
</svg>
