<svg width="41" height="38" viewBox="0 0 41 38" fill="none" xmlns="http://www.w3.org/2000/svg">
<path fill-rule="evenodd" clip-rule="evenodd" d="M19.5005 0.0305463C14.3626 0.348376 9.69891 3.54029 7.49426 8.24776C6.90677 9.50215 6.49189 10.8488 6.3181 12.0652C6.27174 12.3899 6.21633 12.7654 6.19507 12.8997L6.15635 13.144L5.46111 13.1891C3.90006 13.2901 2.38584 14.0986 1.46636 15.3217C1.03086 15.9011 0.79819 16.348 0.556315 17.07C0.379533 17.5977 0.374023 17.6979 0.374023 20.369V23.1239L0.59567 23.7536C1.22023 25.5279 2.7313 26.9396 4.47118 27.3744C5.13501 27.5403 6.4752 27.6328 7.2039 27.5632C7.86962 27.4995 8.2102 27.347 8.47285 26.9947C8.63751 26.7739 8.63877 26.7303 8.68214 19.8714C8.72882 12.4701 8.7215 12.6091 9.14818 11.0883C9.49875 9.83887 10.2138 8.38872 10.997 7.3385C12.7872 4.93786 15.4043 3.3066 18.3985 2.72493C19.4091 2.52863 21.5124 2.53005 22.5701 2.72785C27.051 3.56563 30.6157 6.81949 31.8543 11.2024C32.2411 12.5715 32.2404 12.5561 32.2865 19.8714C32.3295 26.6786 32.3323 26.7755 32.4922 26.9947C32.5813 27.1168 32.8115 27.2993 33.0038 27.4002C33.3401 27.5766 33.4042 27.5821 34.6914 27.5449C36.2285 27.5004 36.67 27.4078 37.6291 26.9283C38.8701 26.3079 39.8899 25.1277 40.3725 23.7536L40.5936 23.1239L40.6189 20.6122C40.6402 18.4903 40.6238 18.0077 40.5127 17.5031C39.9864 15.112 37.938 13.3465 35.5076 13.1891L34.8123 13.144L34.7732 12.8997C34.7517 12.7654 34.6958 12.3821 34.6488 12.048C34.4824 10.8646 33.9181 9.09939 33.3346 7.93677C31.9715 5.2209 29.618 2.85851 26.9396 1.51721C24.634 0.362701 22.1515 -0.133406 19.5005 0.0305463ZM5.65591 29.214C5.82907 30.1806 6.39492 31.519 7.02892 32.4615C7.47206 33.1204 8.66483 34.304 9.30757 34.7225C10.8181 35.7063 12.2978 36.1503 14.0662 36.1503H15.0534V35.4531V34.7559L14.0105 34.7117C12.7579 34.6588 11.9937 34.4772 10.9998 33.9965C9.46609 33.2548 8.33543 32.0993 7.61531 30.5377C7.47167 30.2264 7.30032 29.7645 7.23444 29.5114C7.16856 29.2583 7.1033 29.0415 7.08953 29.0297C7.07568 29.0178 6.73597 28.9903 6.33455 28.9684L5.60475 28.9286L5.65591 29.214ZM18.2805 32.9945C17.5662 33.221 16.9531 33.7521 16.6365 34.4187C16.3596 35.0015 16.3511 35.9252 16.6174 36.4759C16.8997 37.0597 17.2935 37.4576 17.869 37.7409L18.3954 38H20.4845H22.5735L23.0999 37.7409C23.6751 37.4576 24.069 37.0596 24.3513 36.4759C24.6176 35.9252 24.609 35.0015 24.3322 34.4187C24.0847 33.8976 23.6533 33.4533 23.1211 33.1712L22.7276 32.9626L20.6024 32.9473C19.4336 32.939 18.3887 32.9602 18.2805 32.9945Z" fill="#7F56D9"/>
</svg>
