<svg width="47" height="38" viewBox="0 0 47 38" fill="none" xmlns="http://www.w3.org/2000/svg">
<path fill-rule="evenodd" clip-rule="evenodd" d="M33.7799 1.45658L31.2551 2.91351L28.8101 2.01L26.3651 1.10658L25.3093 1.10297C24.5025 1.10033 24.1394 1.13825 23.7696 1.2638C23.5035 1.35416 21.5238 2.43971 19.3704 3.67606C16.1109 5.5474 15.3724 6.0072 14.9614 6.42134C14.3014 7.08641 14.0622 7.68999 14.0548 8.71007C14.0499 9.37365 14.0808 9.52463 14.3286 10.0496C14.6625 10.7568 15.2267 11.3344 15.9103 11.6689C16.557 11.9853 17.6429 12.0616 18.3249 11.8384C18.5752 11.7566 20.6053 10.6343 22.8364 9.34444C25.0675 8.05459 27.091 6.93015 27.333 6.84569C27.8648 6.66004 28.3615 6.64667 28.8807 6.8039C29.094 6.86857 32.8841 9.01107 37.3029 11.5651L45.3371 16.2087L45.5597 16.0007C45.8841 15.6978 46.0296 15.3684 46.0296 14.9371C46.0296 14.5938 45.6326 13.8801 41.9778 7.65206C39.7494 3.85458 37.8666 0.656538 37.7938 0.545326C37.5815 0.220928 37.1398 0.000352515 36.7019 5.78509e-07C36.3482 -0.000351358 36.0275 0.159515 33.7799 1.45658ZM9.12324 2.13071C8.79541 2.3212 8.53833 2.77308 4.87951 9.59106C0.678531 17.4194 0.775402 17.2062 1.11792 17.8686C1.24242 18.1094 2.09015 18.7403 2.28917 18.7403C2.33545 18.7403 2.68386 18.2027 3.06325 17.5455C3.44273 16.8885 3.91159 16.1634 4.10516 15.9342C6.10715 13.5643 9.60496 13.2515 11.9821 15.2299L12.5153 15.6736L13.067 15.5353C13.3704 15.4592 13.9725 15.3975 14.4049 15.3982C16.9636 15.4024 19 16.9177 19.7612 19.3836L19.9463 19.9829L20.5161 20.1755C21.3588 20.4601 21.8884 20.8034 22.6338 21.5483C23.3546 22.2685 23.8502 23.1226 24.0549 23.997L24.1631 24.4587L24.6963 24.6361C26.3567 25.1887 27.6781 26.5188 28.2286 28.1917C28.4241 28.7858 28.4637 29.0684 28.4696 29.9142C28.4793 31.2949 28.3224 31.7521 27.1134 33.865C26.5774 34.8018 26.1565 35.5859 26.1782 35.6075C26.3497 35.7791 29.9606 37.7805 30.2972 37.8906C30.5982 37.9891 30.9186 38.0187 31.3619 37.989C32.4857 37.9138 33.3269 37.3551 33.8181 36.3572C34.0788 35.8277 34.1073 35.6938 34.1034 35.0192C34.0984 34.1672 33.929 33.6873 33.4346 33.1238C33.1058 32.7493 33.068 32.7342 34.409 33.5116C35.8091 34.3234 36.6319 34.4133 37.7269 33.8743C38.7479 33.3717 39.3761 32.3853 39.3806 31.278C39.3836 30.5138 39.1758 29.8832 38.761 29.3987C38.5896 29.1983 38.4687 29.0344 38.4923 29.0344C38.5161 29.0344 38.8062 29.1883 39.1371 29.3763C39.9796 29.8552 40.3088 29.9424 41.092 29.8944C41.907 29.8445 42.4828 29.5938 43.0232 29.0538C43.6075 28.4698 43.869 27.8245 43.869 26.9668C43.869 25.7458 43.3508 24.9215 42.1417 24.2189C41.7638 23.9993 41.4544 23.8083 41.4544 23.7946C41.4544 23.7808 41.6028 23.8105 41.7843 23.8607C42.9399 24.1797 44.3986 23.453 45.0363 22.2406C45.2543 21.8263 45.2807 21.6846 45.28 20.9399C45.2792 20.232 45.2459 20.0366 45.0632 19.6641C44.6303 18.7815 44.4936 18.6929 36.1793 13.9011C31.8551 11.409 28.2652 9.35737 28.2016 9.34206C28.1381 9.32666 26.234 10.3828 23.9702 11.6889C19.1082 14.4944 18.9701 14.5541 17.3468 14.5514C16.4016 14.5499 16.1508 14.5176 15.5626 14.322C13.5597 13.6554 12.0252 11.9826 11.5796 9.97968C11.4687 9.48134 11.4414 9.06474 11.4742 8.37081C11.5462 6.84164 12.0321 5.71052 13.1004 4.58503C13.5239 4.13868 13.6242 3.98454 13.5403 3.90896C13.4804 3.8552 12.7188 3.40279 11.8478 2.90374C10.0407 1.86825 9.72769 1.77948 9.12324 2.13071ZM7.38371 16.6739C6.92382 16.8428 6.33142 17.2665 6.07169 17.6122C5.64849 18.1756 2.4464 23.8034 2.33052 24.1873C1.89465 25.6319 2.71132 27.273 4.1305 27.8044C4.69536 28.0159 5.625 28.0347 6.17912 27.8457C6.39336 27.7727 6.77856 27.5541 7.03494 27.3599L7.50126 27.0069L7.43087 27.3388C7.14853 28.6712 7.83621 30.0795 9.06377 30.6823C9.49454 30.8939 9.66487 30.9261 10.352 30.9261C11.0475 30.9261 11.2027 30.8959 11.6278 30.678C11.894 30.5416 12.2389 30.3075 12.3945 30.1579L12.6773 29.8859L12.5823 30.23C12.4397 30.7459 12.5351 31.6583 12.7892 32.2101C13.3883 33.5113 14.9036 34.2239 16.2434 33.8344C16.837 33.6617 17.0926 33.5169 17.5336 33.1029L17.8526 32.8036L17.7275 33.2726C17.4722 34.2299 17.8008 35.3156 18.5734 36.0682C19.7409 37.2053 21.5989 37.1751 22.7354 36.0006C22.9831 35.7447 23.5902 34.7946 24.3422 33.4863C25.86 30.8457 25.9014 30.7523 25.9023 29.9666C25.9035 28.748 25.3113 27.7889 24.2287 27.256C23.7092 27.0002 23.5598 26.9672 22.9356 26.9705C22.1704 26.9745 21.6737 27.1404 21.087 27.5879L20.7769 27.8244L21.1955 27.0155C21.6006 26.2325 21.614 26.1821 21.614 25.4429C21.614 24.8039 21.5767 24.6002 21.3858 24.1953C21.0967 23.5826 20.5512 23.0378 19.9127 22.7243C19.4812 22.5124 19.3142 22.4805 18.6665 22.4862C17.8223 22.4937 17.3286 22.6651 16.7905 23.1375L16.4724 23.4169L16.9258 22.5369C17.3582 21.6977 17.3791 21.625 17.3791 20.9678C17.3791 20.4127 17.3347 20.1815 17.1509 19.78C16.847 19.1161 16.3225 18.5645 15.7006 18.2542C15.2621 18.0355 15.087 17.9996 14.4433 17.9963C13.8168 17.993 13.6169 18.0293 13.2115 18.2203C12.5246 18.5438 12.2132 18.8376 11.7372 19.611L11.3199 20.2891V19.4927C11.3199 18.7985 11.2883 18.6319 11.0735 18.1945C10.7649 17.5663 10.1031 16.9603 9.46462 16.7214C8.89756 16.5092 7.89428 16.4863 7.38371 16.6739Z" fill="#7F56D9"/>
</svg>
