<svg width="27" height="24" viewBox="0 0 27 24" fill="none" xmlns="http://www.w3.org/2000/svg">
<path fill-rule="evenodd" clip-rule="evenodd" d="M11.2349 0.0954545C11.219 0.147927 11.1079 0.606382 10.9878 1.11415C10.8678 1.62191 10.7379 2.06864 10.6993 2.10682C10.6606 2.14505 10.3841 2.22922 10.0848 2.2938C9.78554 2.35844 9.33161 2.48236 9.07618 2.56925C8.82069 2.6562 8.57032 2.72727 8.51981 2.72727C8.46936 2.72727 8.08956 2.37256 7.67583 1.93909L6.92365 1.15091L6.62174 1.32245C6.4557 1.41682 6.10847 1.61809 5.85014 1.76973L5.38034 2.04545L5.67227 3.02727C5.83285 3.56727 5.96447 4.05044 5.9648 4.10095C5.96529 4.18473 4.3652 5.83593 4.28272 5.83669C4.26314 5.83691 3.78543 5.69929 3.2211 5.53091C2.65683 5.36253 2.1884 5.23353 2.18021 5.24422C2.11307 5.33182 1.32898 6.72518 1.32898 6.75693C1.32898 6.77951 1.67261 7.12358 2.09261 7.52149C2.64914 8.04873 2.85625 8.2794 2.85625 8.37207C2.85625 8.44205 2.78469 8.71822 2.69725 8.98582C2.60981 9.25342 2.49603 9.68504 2.44438 9.945C2.39278 10.2049 2.31914 10.4607 2.28074 10.5134C2.23274 10.5792 1.89047 10.6861 1.18361 10.856L0.15625 11.103V12V12.897L1.17794 13.144C1.73987 13.2798 2.23361 13.4277 2.27512 13.4727C2.31663 13.5177 2.39283 13.7735 2.44443 14.0411C2.49603 14.3087 2.60981 14.7466 2.69725 15.0142C2.78469 15.2818 2.85625 15.5579 2.85625 15.6279C2.85625 15.7206 2.64914 15.9513 2.09261 16.4785C1.67261 16.8764 1.32898 17.2205 1.32898 17.2431C1.32898 17.2751 2.1147 18.671 2.18087 18.7564C2.18938 18.7675 2.64663 18.6386 3.19689 18.4701C3.7472 18.3015 4.2243 18.1636 4.25709 18.1636C4.35041 18.1636 5.96534 19.7919 5.96534 19.886C5.96534 19.9321 5.8311 20.4152 5.66703 20.9594C5.50301 21.5036 5.37412 21.9522 5.38067 21.9563C5.85347 22.2493 6.87145 22.8005 6.91819 22.7889C6.95376 22.78 7.283 22.4536 7.64981 22.0636C8.01669 21.6736 8.36474 21.3323 8.42332 21.3051C8.49887 21.2701 8.69223 21.3056 9.08872 21.4273C9.39614 21.5217 9.86321 21.646 10.1268 21.7036C10.3903 21.7612 10.6401 21.8367 10.6819 21.8714C10.7237 21.9061 10.8468 22.3072 10.9555 22.7627C11.0641 23.2182 11.1772 23.683 11.2067 23.7955L11.2604 24H11.8311H12.4017V21.6604V19.3209L11.8426 19.2827C10.7265 19.2066 9.77736 18.9591 8.88969 18.5127C6.80998 17.4668 5.35165 15.4946 4.95009 13.1849C4.88365 12.8028 4.86903 12.4588 4.88927 11.7545C4.91229 10.9525 4.93803 10.7426 5.08007 10.2C5.41067 8.93656 6.01279 7.86764 6.92114 6.93153C8.23885 5.57356 9.87369 4.82804 11.7889 4.71175L12.4017 4.67449V2.33727V0H11.8326C11.338 0 11.2598 0.0124909 11.2349 0.0954545ZM19.4926 0.440782C18.961 0.681436 18.7049 1.07896 18.7049 1.66364C18.7049 2.11255 18.827 2.39231 19.1445 2.67109C19.4227 2.91535 19.6498 3 20.0266 3C20.8934 3 21.5461 2.19305 21.3478 1.36642C21.1531 0.554618 20.2436 0.100855 19.4926 0.440782ZM13.0017 1.66364V2.01818H15.5381H18.0744V1.66364V1.30909H15.5381H13.0017V1.66364ZM23.4101 4.4922C22.5857 4.72085 22.1716 5.63924 22.5532 6.3924C23.0064 7.28667 24.2569 7.39364 24.8405 6.58795C25.5827 5.56347 24.622 4.15604 23.4101 4.4922ZM11.5562 5.32909C8.75294 5.58376 6.4034 7.58607 5.64876 10.3636C5.51883 10.8418 5.50798 10.9681 5.50798 12C5.50798 13.0319 5.51883 13.1582 5.64876 13.6364C6.33172 16.1501 8.30714 18.0355 10.7926 18.5457C12.9366 18.9859 15.1065 18.3677 16.7259 16.8554C19.6956 14.082 19.4876 9.30785 16.286 6.75567C14.9699 5.70649 13.218 5.17811 11.5562 5.32909ZM15.4562 5.47445C15.4562 5.48542 15.6506 5.60733 15.8883 5.74538C16.1259 5.88349 16.336 6.02176 16.3552 6.05275C16.3783 6.09027 17.2951 6.10909 19.1004 6.10909H21.8108V5.78182V5.45455H18.6335C16.886 5.45455 15.4562 5.46349 15.4562 5.47445ZM13.3398 7.30287C15.8486 7.95655 17.3999 10.4391 16.8784 12.966C16.495 14.8241 15.0766 16.268 13.1851 16.7257C12.6281 16.8604 11.6302 16.8485 11.0216 16.6999C9.18854 16.2519 7.79398 14.81 7.40016 12.9555C7.29641 12.4669 7.33263 11.1958 7.46398 10.7182C7.6046 10.2066 8.00458 9.43107 8.35558 8.98936C9.10558 8.04556 10.0936 7.45855 11.3294 7.22242C11.8493 7.12304 12.7949 7.16089 13.3398 7.30287ZM11.555 7.7958C9.42925 8.13578 7.92898 9.87529 7.92898 12C7.92898 13.9481 9.16863 15.563 11.0767 16.1007C11.6133 16.2518 12.5663 16.264 13.1282 16.127C14.2968 15.8418 15.3357 15.0275 15.8882 13.9636C16.2591 13.2494 16.3555 12.8445 16.3555 12C16.3555 11.381 16.3352 11.1988 16.2281 10.8569C15.9601 10.0008 15.489 9.27267 14.8658 8.7516C14.44 8.39547 13.669 8.00236 13.1653 7.88465C12.7259 7.78195 11.9197 7.73744 11.555 7.7958ZM25.6563 9.11285C25.169 9.31773 24.9677 9.90327 25.2263 10.3634C25.5258 10.8963 26.2876 10.9456 26.6608 10.4563C27.0756 9.91249 26.7264 9.123 26.0494 9.07407C25.9082 9.06387 25.7312 9.08133 25.6563 9.11285ZM19.0562 9.63251C19.0562 9.6504 19.0948 9.79767 19.1419 9.95978L19.2276 10.2545H21.8692H24.5108V9.92727V9.6H21.7835C20.2835 9.6 19.0562 9.61462 19.0562 9.63251ZM25.5429 13.324C25.2602 13.5145 25.1108 13.7734 25.1108 14.0727C25.1108 14.7254 25.8303 15.1475 26.3926 14.8248C26.6825 14.6584 26.8726 14.298 26.8392 13.9776C26.8116 13.7117 26.6022 13.4043 26.3652 13.2818C26.1272 13.1587 25.7602 13.1776 25.5429 13.324ZM19.1481 14.0366C19.0975 14.1968 19.0562 14.344 19.0562 14.3639C19.0562 14.3837 20.2835 14.4 21.7835 14.4H24.5108V14.0727V13.7455H21.8753H19.2398L19.1481 14.0366ZM23.1563 16.9965C22.3118 17.4174 22.1553 18.5853 22.8605 19.2044C23.1362 19.4464 23.3625 19.5274 23.759 19.5261C24.1974 19.5245 24.4779 19.3979 24.7648 19.072C25.5317 18.2007 24.9145 16.8604 23.7442 16.8557C23.5255 16.8549 23.3621 16.894 23.1563 16.9965ZM16.3552 17.9473C16.336 17.9782 16.121 18.1193 15.8774 18.2609L15.4345 18.5182L17.0272 18.5326C17.9032 18.5406 19.3339 18.5406 20.2065 18.5326L21.7931 18.5182L21.802 18.2045L21.8109 17.8909H19.1004C17.2951 17.8909 16.3783 17.9097 16.3552 17.9473ZM19.4501 21.1186C18.9208 21.3753 18.6024 22.0136 18.7205 22.5818C19.0039 23.9452 20.8856 24.0527 21.3248 22.7307C21.538 22.0888 21.1878 21.3422 20.5483 21.075C20.278 20.962 19.728 20.9839 19.4501 21.1186ZM13.0017 22.3364V22.6909H15.5381H18.0744V22.3364V21.9818H15.5381H13.0017V22.3364Z" fill="#7F56D9"/>
</svg>
