<svg width="27" height="24" viewBox="0 0 27 24" fill="none" xmlns="http://www.w3.org/2000/svg">
<path fill-rule="evenodd" clip-rule="evenodd" d="M12.5462 0.0636467C11.0848 0.397014 9.9487 1.30468 9.31724 2.64346C9.05685 3.19548 8.9415 3.64281 8.8986 4.26642L8.86413 4.76867L8.42499 5.02455C5.56175 6.69318 3.68042 9.61849 3.36778 12.8882L3.32898 13.2941L2.97275 13.4794C1.9342 14.0195 1.11383 15.0385 0.730978 16.264C0.615218 16.6345 0.595703 16.8179 0.595703 17.5342C0.595703 18.2505 0.615218 18.4339 0.730978 18.8044C1.22041 20.3711 2.34886 21.4995 3.91552 21.9889C4.29046 22.1061 4.46476 22.124 5.21458 22.1224C6.03149 22.1207 6.11007 22.1104 6.59984 21.941L7.11906 21.7615L7.32154 21.921C8.09543 22.5309 9.30962 23.1694 10.332 23.5043C11.9778 24.0434 13.9056 24.1482 15.6292 23.7922C16.9695 23.5153 18.6264 22.7496 19.6778 21.921L19.8803 21.7615L20.3995 21.941C20.8893 22.1104 20.9679 22.1207 21.7848 22.1224C22.5353 22.124 22.7083 22.1061 23.0818 21.9889C24.6776 21.4878 25.7673 20.3981 26.2684 18.8024C26.3843 18.4332 26.4037 18.2513 26.4037 17.5342C26.4037 16.8179 26.3842 16.6345 26.2684 16.264C25.8856 15.0385 25.0652 14.0195 24.0266 13.4794L23.6704 13.2941L23.6316 12.8882C23.3235 9.66554 21.4801 6.75825 18.6896 5.09395L18.1349 4.76301L18.103 4.22993C18.039 3.15679 17.5686 2.13891 16.7654 1.33551C16.2177 0.787714 15.6875 0.460466 14.9345 0.205504C14.4591 0.0445939 14.3049 0.0204603 13.644 0.00360143C13.1495 -0.00898501 12.775 0.0115111 12.5462 0.0636467ZM9.50737 6.93544C9.8629 7.6057 10.5868 8.29224 11.3635 8.69581C12.1353 9.0969 12.5426 9.19136 13.4997 9.19136C14.4568 9.19136 14.8641 9.0969 15.6359 8.69581C16.4126 8.29224 17.1365 7.6057 17.492 6.93544C17.5666 6.79485 17.6486 6.67984 17.6742 6.67984C17.6998 6.67984 17.8817 6.78792 18.0784 6.91997C19.5366 7.89888 20.6624 9.31722 21.2771 10.9498C21.4165 11.3199 21.6595 12.2839 21.7181 12.6988C21.7476 12.9074 21.7424 12.9153 21.5767 12.9153C21.2902 12.9153 20.5376 13.0888 20.1393 13.2466C18.7792 13.7854 17.8061 14.8423 17.359 16.266C17.2431 16.6352 17.2237 16.8171 17.2237 17.5342C17.2237 18.2511 17.2431 18.4333 17.3589 18.8019C17.5249 19.3305 17.811 19.9076 18.0853 20.267C18.1989 20.4157 18.2915 20.5567 18.2913 20.5803C18.2897 20.7156 16.9719 21.4101 16.1996 21.6826C14.5337 22.2705 12.4704 22.2707 10.7998 21.6832C10.0943 21.4352 9.09992 20.9258 8.71315 20.6145C8.70033 20.6041 8.79444 20.4459 8.92233 20.263C9.23445 19.8163 9.47682 19.3232 9.64039 18.8024C9.75632 18.4332 9.77572 18.2513 9.77572 17.5342C9.77572 16.611 9.68519 16.1946 9.33046 15.4866C8.61182 14.0523 7.19163 13.0631 5.66585 12.9341C5.27757 12.9012 5.24732 12.8893 5.26995 12.7771C5.2834 12.7102 5.32532 12.4736 5.36314 12.2514C5.5166 11.3487 6.03963 10.067 6.58829 9.24909C6.98742 8.65413 7.59463 7.96914 8.0885 7.55679C8.59924 7.1303 9.22007 6.68752 9.31395 6.68279C9.34576 6.68117 9.43277 6.79485 9.50737 6.93544Z" fill="#7F56D9"/>
</svg>
