<svg width="25" height="24" viewBox="0 0 25 24" fill="none" xmlns="http://www.w3.org/2000/svg">
<path fill-rule="evenodd" clip-rule="evenodd" d="M1.69189 0.0780304C1.22448 0.239914 0.849877 0.584455 0.635283 1.0498C0.530846 1.2763 0.528877 1.3119 0.528877 2.99221V4.7039L0.654932 4.97289C0.816018 5.31654 1.18241 5.68294 1.52606 5.84402L1.79506 5.97008H12.5107H23.2263L23.4953 5.84402C23.839 5.68294 24.2054 5.31654 24.3664 4.97289L24.4925 4.7039V2.99221V1.28053L24.3664 1.01153C24.2054 0.667882 23.839 0.301488 23.4953 0.140401L23.2263 0.0143462L12.581 0.00393542C2.4334 -0.00595954 1.92435 -0.00248926 1.69189 0.0780304ZM2.78042 9.07053C2.25674 9.19715 1.83299 9.44598 1.39476 9.88417C0.775969 10.503 0.506836 11.1432 0.506836 11.9962C0.506836 12.8492 0.776016 13.4894 1.39476 14.108C2.01124 14.7241 2.65793 14.9961 3.50674 14.9961C4.35973 14.9961 4.9999 14.7269 5.61873 14.1081C6.23752 13.4893 6.50665 12.8491 6.50665 11.9962C6.50665 11.1473 6.2347 10.5007 5.61854 9.88417C5.17336 9.4388 4.75374 9.1956 4.21018 9.06786C3.83253 8.97913 3.15334 8.9804 2.78042 9.07053ZM9.64499 9.1049C9.01608 9.36442 8.62783 9.8398 8.52325 10.4784C8.46285 10.8472 8.46285 22.1491 8.52325 22.5178C8.6162 23.0854 8.97556 23.5661 9.49971 23.8241L9.81222 23.978H16.5193H23.2263L23.4953 23.8519C23.839 23.6908 24.2054 23.3244 24.3664 22.9808L24.4925 22.7118V16.4981V10.2845L24.3664 10.0155C24.2054 9.67182 23.839 9.30543 23.4953 9.14434L23.2263 9.01829L16.5671 9.00736L9.90798 8.99639L9.64499 9.1049ZM2.78042 18.0745C2.25674 18.2011 1.83299 18.4499 1.39476 18.8881C0.775969 19.5069 0.506836 20.1471 0.506836 21.0001C0.506836 21.8532 0.776016 22.4934 1.39476 23.1119C2.01124 23.7281 2.65793 24 3.50674 24C4.35973 24 4.9999 23.7309 5.61873 23.1121C6.23752 22.4932 6.50665 21.8531 6.50665 21.0001C6.50665 20.1513 6.2347 19.5046 5.61854 18.8881C5.17336 18.4427 4.75374 18.1995 4.21018 18.0718C3.83253 17.9831 3.15334 17.9843 2.78042 18.0745Z" fill="#7F56D9"/>
</svg>
